<svg width="475" height="1139" viewBox="0 0 475 1139" fill="none" xmlns="http://www.w3.org/2000/svg">
<path fill-rule="evenodd" clip-rule="evenodd" d="M200 100V120H210V220L230 240V100H200ZM130 120V100H90L110 120H130ZM50 80L40 90L50 100V240H80V220H70V120L90 140V240H130V220H110V160L170 220H150V240H190L220 270L230 260L200 230L50 80ZM170 180L190 200V100H150V120H170V180Z" fill="white"/>
<path fill-rule="evenodd" clip-rule="evenodd" d="M236 899H76C64.9543 899 56 907.954 56 919V1099L96 1059H236C247.046 1059 256 1050.05 256 1039V919C256 907.954 247.046 899 236 899ZM196 939C204.284 939 211 945.716 211 954C211 962.284 204.284 969 196 969C187.716 969 181 962.284 181 954C181 945.716 187.716 939 196 939ZM116 939C124.284 939 131 945.716 131 954C131 962.284 124.284 969 116 969C107.716 969 101 962.284 101 954C101 945.716 107.716 939 116 939ZM156 989C129.9 989 107.7 995.7 99.5 1019H212.5C204.3 995.7 182.1 989 156 989Z" fill="white"/>
<path d="M236.192 534.426L196.631 632.354C196.631 632.354 205.18 657.483 236.192 657.483C267.204 657.483 275.753 632.354 275.753 632.354L236.192 534.426ZM350.593 504.46L311.032 602.374C311.032 602.374 319.582 627.5 350.593 627.5C381.605 627.5 390.153 602.374 390.153 602.374L350.593 504.46Z" stroke="white" stroke-width="12" stroke-miterlimit="10" stroke-linejoin="round"/>
<path d="M237.276 536.688L351.681 506.647" stroke="white" stroke-width="16" stroke-miterlimit="10"/>
<path d="M293.392 514.865V485.381" stroke="white" stroke-width="30" stroke-miterlimit="10" stroke-linecap="round"/>
<path d="M196.461 633.984H275.487L268.575 646.624L256.207 654.808L242.385 658.487L227.759 658.035L212.011 653.172L202.099 644.896L196.461 637.257V633.984ZM311.079 604.002H390.106L383.195 616.641L370.827 624.826L357.004 628.505L342.378 628.053L326.631 623.189L316.718 614.914L311.079 607.275V604.002Z" fill="white"/>
</svg>
