<svg width="1003" height="1058" viewBox="0 0 1003 1058" fill="none" xmlns="http://www.w3.org/2000/svg">
<circle cx="507.617" cy="535.718" r="411.801" stroke="#EDAB00" stroke-width="8" stroke-linejoin="round"/>
<circle cx="733.911" cy="404.379" r="4.49023" fill="#EDAB00" stroke="#EDAB00" stroke-width="8" stroke-linejoin="round"/>
<path d="M706.935 434.776C706.341 435.928 706.044 437.449 706.044 439.339C706.044 441.229 706.341 442.75 706.935 443.902C707.529 445.054 708.456 445.63 709.716 445.63C710.976 445.63 711.903 445.054 712.497 443.902C713.091 442.75 713.388 441.229 713.388 439.339C713.388 437.449 713.091 435.928 712.497 434.776C711.903 433.624 710.976 433.048 709.716 433.048C708.456 433.048 707.529 433.624 706.935 434.776ZM709.716 449.086C707.106 449.086 705.153 448.204 703.857 446.44C702.561 444.658 701.913 442.291 701.913 439.339C701.913 436.369 702.561 434.002 703.857 432.238C705.153 430.456 707.106 429.565 709.716 429.565C712.326 429.565 714.279 430.456 715.575 432.238C716.871 434.002 717.519 436.369 717.519 439.339C717.519 442.291 716.871 444.658 715.575 446.44C714.279 448.204 712.326 449.086 709.716 449.086ZM721.23 448.411C720.78 447.943 720.555 447.376 720.555 446.71C720.555 446.044 720.78 445.486 721.23 445.036C721.698 444.568 722.265 444.334 722.931 444.334C723.597 444.334 724.155 444.568 724.605 445.036C725.073 445.486 725.307 446.044 725.307 446.71C725.307 447.376 725.073 447.943 724.605 448.411C724.155 448.861 723.597 449.086 722.931 449.086C722.265 449.086 721.698 448.861 721.23 448.411ZM733.355 434.776C732.761 435.928 732.464 437.449 732.464 439.339C732.464 441.229 732.761 442.75 733.355 443.902C733.949 445.054 734.876 445.63 736.136 445.63C737.396 445.63 738.323 445.054 738.917 443.902C739.511 442.75 739.808 441.229 739.808 439.339C739.808 437.449 739.511 435.928 738.917 434.776C738.323 433.624 737.396 433.048 736.136 433.048C734.876 433.048 733.949 433.624 733.355 434.776ZM736.136 449.086C733.526 449.086 731.573 448.204 730.277 446.44C728.981 444.658 728.333 442.291 728.333 439.339C728.333 436.369 728.981 434.002 730.277 432.238C731.573 430.456 733.526 429.565 736.136 429.565C738.746 429.565 740.699 430.456 741.995 432.238C743.291 434.002 743.939 436.369 743.939 439.339C743.939 442.291 743.291 444.658 741.995 446.44C740.699 448.204 738.746 449.086 736.136 449.086ZM752.564 440.068C753.68 438.934 754.472 438.034 754.94 437.368C755.426 436.684 755.669 436.027 755.669 435.397C755.669 434.767 755.462 434.245 755.048 433.831C754.634 433.399 754.103 433.183 753.455 433.183C752.267 433.183 751.142 434.029 750.08 435.721L746.705 433.723C747.587 432.355 748.55 431.32 749.594 430.618C750.656 429.916 751.997 429.565 753.617 429.565C755.255 429.565 756.686 430.087 757.91 431.131C759.152 432.157 759.773 433.561 759.773 435.343C759.773 436.315 759.521 437.251 759.017 438.151C758.531 439.033 757.622 440.167 756.29 441.553L752.888 445.09H760.34V448.87H747.029V445.738L752.564 440.068ZM781.871 429.997L768.344 448.87H763.7L777.254 429.997H781.871ZM777.335 446.278C777.551 446.512 777.821 446.629 778.145 446.629C778.469 446.629 778.739 446.512 778.955 446.278C779.171 446.026 779.279 445.702 779.279 445.306C779.279 444.91 779.171 444.586 778.955 444.334C778.739 444.064 778.469 443.929 778.145 443.929C777.839 443.929 777.578 444.064 777.362 444.334C777.146 444.586 777.038 444.91 777.038 445.306C777.038 445.702 777.137 446.026 777.335 446.278ZM782.141 445.306C782.141 446.368 781.763 447.268 781.007 448.006C780.251 448.726 779.297 449.086 778.145 449.086C777.011 449.086 776.066 448.717 775.31 447.979C774.554 447.241 774.176 446.35 774.176 445.306C774.176 444.244 774.554 443.344 775.31 442.606C776.066 441.868 777.011 441.499 778.145 441.499C779.297 441.499 780.251 441.868 781.007 442.606C781.763 443.344 782.141 444.244 782.141 445.306ZM766.697 435.235C766.913 435.469 767.183 435.586 767.507 435.586C767.831 435.586 768.101 435.469 768.317 435.235C768.533 434.983 768.641 434.659 768.641 434.263C768.641 433.867 768.533 433.543 768.317 433.291C768.101 433.021 767.831 432.886 767.507 432.886C767.201 432.886 766.94 433.021 766.724 433.291C766.508 433.543 766.4 433.867 766.4 434.263C766.4 434.659 766.499 434.983 766.697 435.235ZM771.503 434.263C771.503 435.325 771.125 436.225 770.369 436.963C769.613 437.683 768.659 438.043 767.507 438.043C766.373 438.043 765.428 437.674 764.672 436.936C763.916 436.198 763.538 435.307 763.538 434.263C763.538 433.201 763.916 432.301 764.672 431.563C765.428 430.825 766.373 430.456 767.507 430.456C768.659 430.456 769.613 430.825 770.369 431.563C771.125 432.301 771.503 433.201 771.503 434.263Z" fill="#EDAB00"/>
</svg>
