<svg width="220" height="220" viewBox="0 0 220 220" fill="none" xmlns="http://www.w3.org/2000/svg">
<path d="M51.1922 75.176L11.6311 173.104C11.6311 173.104 20.18 198.233 51.1922 198.233C82.2038 198.233 90.7528 173.104 90.7528 173.104L51.1922 75.176ZM165.593 45.2102L126.032 143.124C126.032 143.124 134.582 168.25 165.593 168.25C196.605 168.25 205.153 143.124 205.153 143.124L165.593 45.2102Z" stroke="#010101" stroke-width="12" stroke-miterlimit="10" stroke-linejoin="round"/>
<path d="M52.2755 77.4381L166.681 47.3974" stroke="#010101" stroke-width="16" stroke-miterlimit="10"/>
<path d="M108.392 55.6151V26.1305" stroke="#010101" stroke-width="30" stroke-miterlimit="10" stroke-linecap="round"/>
<path d="M11.4607 174.734H90.4869L83.575 187.374L71.2073 195.558L57.3845 199.237L42.7592 198.785L27.0115 193.922L17.0989 185.646L11.4607 178.007V174.734ZM126.079 144.752H205.106L198.195 157.391L185.827 165.576L172.004 169.255L157.378 168.803L141.631 163.939L131.718 155.664L126.079 148.025V144.752Z" fill="#010101"/>
</svg>
