<svg width="220" height="220" viewBox="0 0 220 220" fill="none" xmlns="http://www.w3.org/2000/svg">
<path fill-rule="evenodd" clip-rule="evenodd" d="M191 10.5H31C19.9543 10.5 11 19.4543 11 30.5V210.5L51 170.5H191C202.046 170.5 211 161.546 211 150.5V30.5C211 19.4543 202.046 10.5 191 10.5ZM151 50.5C159.284 50.5 166 57.2157 166 65.5C166 73.7843 159.284 80.5 151 80.5C142.716 80.5 136 73.7843 136 65.5C136 57.2157 142.716 50.5 151 50.5ZM71 50.5C79.2843 50.5 86 57.2157 86 65.5C86 73.7843 79.2843 80.5 71 80.5C62.7157 80.5 56 73.7843 56 65.5C56 57.2157 62.7157 50.5 71 50.5ZM111 100.5C84.9 100.5 62.7 107.2 54.5 130.5H167.5C159.3 107.2 137.1 100.5 111 100.5Z" fill="#202122"/>
</svg>
