<svg width="2669" height="1283" viewBox="0 0 2669 1283" fill="none" xmlns="http://www.w3.org/2000/svg">
<path fill-rule="evenodd" clip-rule="evenodd" d="M894.7 865.426C412.258 865.426 212.505 1075.43 212.505 1075.43L212.505 207.161C212.505 207.161 423.133 517.161 894.7 517.161V865.426ZM1893.1 787.369C1773.22 787.369 920.388 864.633 920.388 864.633V523.665C920.388 523.665 1175.48 535.907 1893.1 579.792V787.369ZM2492.06 769.809L1913.1 777V585.012L2492.06 600.293V769.809ZM745.566 659.811C745.566 663.34 744.248 666.176 741.613 668.32C739.022 670.464 735.717 671.536 731.697 671.536C729.017 671.536 726.225 671.067 723.322 670.129C720.419 669.146 717.806 667.717 715.483 665.841L719.905 659.543C723.657 662.446 727.655 663.898 731.898 663.898C733.193 663.898 734.221 663.652 734.98 663.161C735.739 662.625 736.119 661.933 736.119 661.084C736.119 660.235 735.583 659.454 734.511 658.739C733.484 658.024 731.965 657.354 729.955 656.729C727.99 656.104 726.471 655.568 725.399 655.121C724.372 654.674 723.188 654.027 721.848 653.178C719.123 651.481 717.761 648.979 717.761 645.674C717.761 642.324 719.101 639.599 721.781 637.5C724.461 635.401 727.923 634.351 732.166 634.351C736.409 634.351 740.653 635.78 744.896 638.639L741.144 645.339C738.017 643.195 734.891 642.123 731.764 642.123C728.682 642.123 727.141 642.972 727.141 644.669C727.141 645.607 727.632 646.344 728.615 646.88C729.598 647.416 731.228 648.041 733.506 648.756C735.784 649.471 737.392 650.029 738.33 650.431C739.313 650.788 740.474 651.369 741.814 652.173C744.315 653.692 745.566 656.238 745.566 659.811ZM703.408 647.014C704.882 644.87 707.115 643.798 710.108 643.798H712.051L711.984 634.351C709.974 634.396 707.986 634.932 706.021 635.959C704.1 636.986 702.492 638.237 701.197 639.711V634.954H691.147V671H701.197V655.389C701.197 651.905 701.934 649.113 703.408 647.014ZM655.676 652.977C655.676 655.925 656.502 658.337 658.155 660.213C659.852 662.044 661.996 662.96 664.587 662.96C667.222 662.96 669.366 662.044 671.019 660.213C672.716 658.337 673.565 655.925 673.565 652.977C673.565 650.029 672.716 647.617 671.019 645.741C669.366 643.865 667.222 642.927 664.587 642.927C661.996 642.927 659.852 643.865 658.155 645.741C656.502 647.617 655.676 650.029 655.676 652.977ZM683.682 652.977C683.682 658.203 681.873 662.603 678.255 666.176C674.637 669.749 670.081 671.536 664.587 671.536C659.138 671.536 654.604 669.749 650.986 666.176C647.368 662.603 645.559 658.203 645.559 652.977C645.559 647.751 647.368 643.351 650.986 639.778C654.604 636.16 659.138 634.351 664.587 634.351C670.081 634.351 674.637 636.16 678.255 639.778C681.873 643.351 683.682 647.751 683.682 652.977ZM630.513 658.337V642.19H639.223V634.954H630.513V624.167H620.396V634.954H616.175V642.19H620.396V658.806C620.396 662.737 621.58 665.841 623.947 668.119C626.359 670.397 629.285 671.536 632.724 671.536C636.208 671.536 639.513 670.107 642.64 667.248L638.888 660.213C637.593 661.91 636.007 662.759 634.131 662.759C633.148 662.759 632.3 662.379 631.585 661.62C630.87 660.816 630.513 659.722 630.513 658.337ZM609.006 671H598.956V634.954H609.006V671ZM599.76 630.398C598.644 629.237 598.085 627.83 598.085 626.177C598.085 624.524 598.644 623.14 599.76 622.023C600.922 620.862 602.329 620.281 603.981 620.281C605.634 620.281 607.019 620.862 608.135 622.023C609.297 623.14 609.877 624.524 609.877 626.177C609.877 627.83 609.297 629.237 608.135 630.398C607.019 631.515 605.634 632.073 603.981 632.073C602.329 632.073 600.922 631.515 599.76 630.398ZM557.348 666.109C560.698 669.727 564.495 671.536 568.738 671.536C573.026 671.536 576.577 669.772 579.391 666.243V671H589.441V621.286H579.391V638.974C576.622 635.892 573.049 634.351 568.671 634.351C564.294 634.351 560.475 636.071 557.214 639.51C553.954 642.905 552.323 647.282 552.323 652.642C552.323 658.002 553.998 662.491 557.348 666.109ZM565.053 660.213C563.311 658.337 562.44 655.947 562.44 653.044C562.44 650.141 563.289 647.706 564.986 645.741C566.684 643.776 568.716 642.793 571.083 642.793C573.451 642.793 575.438 643.776 577.046 645.741C578.699 647.662 579.525 650.096 579.525 653.044C579.525 655.947 578.699 658.337 577.046 660.213C575.438 662.044 573.473 662.96 571.15 662.96C568.828 662.96 566.795 662.044 565.053 660.213ZM544.138 665.774C540.074 669.615 535.294 671.536 529.8 671.536C524.351 671.536 519.84 669.861 516.266 666.511C512.693 663.116 510.906 658.583 510.906 652.91C510.906 647.237 512.715 642.726 516.333 639.376C519.996 636.026 524.306 634.351 529.264 634.351C534.222 634.351 538.421 635.847 541.86 638.84C545.344 641.833 547.086 645.942 547.086 651.168V656.528H520.822C521.135 658.493 522.162 660.101 523.904 661.352C525.646 662.603 527.612 663.228 529.8 663.228C533.329 663.228 536.232 662.044 538.51 659.677L544.138 665.774ZM536.902 649.359C536.679 647.215 535.875 645.562 534.49 644.401C533.106 643.24 531.408 642.659 529.398 642.659C527.433 642.659 525.624 643.262 523.971 644.468C522.319 645.674 521.358 647.304 521.09 649.359H536.902ZM479.965 647.014C481.439 644.87 483.673 643.798 486.665 643.798H488.608L488.542 634.351C486.531 634.396 484.544 634.932 482.578 635.959C480.658 636.986 479.05 638.237 477.754 639.711V634.954H467.704V671H477.754V655.389C477.754 651.905 478.491 649.113 479.965 647.014ZM457.509 665.774C453.445 669.615 448.665 671.536 443.171 671.536C437.722 671.536 433.211 669.861 429.637 666.511C426.064 663.116 424.277 658.583 424.277 652.91C424.277 647.237 426.086 642.726 429.704 639.376C433.367 636.026 437.677 634.351 442.635 634.351C447.593 634.351 451.792 635.847 455.231 638.84C458.715 641.833 460.457 645.942 460.457 651.168V656.528H434.193C434.506 658.493 435.533 660.101 437.275 661.352C439.017 662.603 440.983 663.228 443.171 663.228C446.7 663.228 449.603 662.044 451.881 659.677L457.509 665.774ZM450.273 649.359C450.05 647.215 449.246 645.562 447.861 644.401C446.477 643.24 444.779 642.659 442.769 642.659C440.804 642.659 438.995 643.262 437.342 644.468C435.69 645.674 434.729 647.304 434.461 649.359H450.273ZM408.772 658.337V642.19H417.482V634.954H408.772V624.167H398.655V634.954H394.434V642.19H398.655V658.806C398.655 662.737 399.838 665.841 402.206 668.119C404.618 670.397 407.543 671.536 410.983 671.536C414.467 671.536 417.772 670.107 420.899 667.248L417.147 660.213C415.851 661.91 414.266 662.759 412.39 662.759C411.407 662.759 410.558 662.379 409.844 661.62C409.129 660.816 408.772 659.722 408.772 658.337ZM388.194 643.798C385.201 643.798 382.968 644.87 381.494 647.014C380.02 649.113 379.283 651.905 379.283 655.389V671H369.233V634.954H379.283V639.711C380.578 638.237 382.186 636.986 384.107 635.959C386.072 634.932 388.06 634.396 390.07 634.351L390.137 643.798H388.194ZM350.624 671H360.071V648.019C360.071 643.284 358.686 639.823 355.917 637.634C353.147 635.445 349.574 634.351 345.197 634.351C339.122 634.351 333.717 636.071 328.983 639.51L333.472 646.009C334.812 644.982 336.442 644.133 338.363 643.463C340.328 642.748 342.182 642.391 343.924 642.391C347.988 642.391 350.021 644.312 350.021 648.153V648.354H342.517C337.871 648.354 334.209 649.27 331.529 651.101C328.849 652.932 327.509 655.702 327.509 659.409C327.509 663.072 328.804 666.02 331.395 668.253C333.985 670.442 337.179 671.536 340.976 671.536C344.817 671.536 348.033 669.906 350.624 666.645V671ZM349.954 655.523V657.265C349.954 659.096 349.261 660.57 347.877 661.687C346.537 662.759 344.973 663.295 343.187 663.295C341.4 663.295 340.015 662.96 339.033 662.29C338.095 661.575 337.626 660.57 337.626 659.275C337.626 656.774 339.636 655.523 343.656 655.523H349.954ZM311.936 642.19V658.337C311.936 659.722 312.293 660.816 313.008 661.62C313.722 662.379 314.571 662.759 315.554 662.759C317.43 662.759 319.015 661.91 320.311 660.213L324.063 667.248C320.936 670.107 317.631 671.536 314.147 671.536C310.707 671.536 307.782 670.397 305.37 668.119C303.002 665.841 301.819 662.737 301.819 658.806V642.19H297.598V634.954H301.819V624.167H311.936V634.954H320.646V642.19H311.936ZM270.059 633.547C271.087 632.698 272.471 632.274 274.213 632.274C278.546 632.274 282.745 633.815 286.809 636.897L292.102 629.259C289.78 627.294 287.055 625.775 283.928 624.703C280.802 623.631 277.675 623.095 274.548 623.095C269.769 623.095 265.771 624.301 262.555 626.713C259.384 629.125 257.798 632.564 257.798 637.031C257.798 641.453 259.049 644.714 261.55 646.813C264.096 648.868 268.094 650.543 273.543 651.838C276.983 652.687 279.283 653.535 280.444 654.384C281.606 655.188 282.186 656.305 282.186 657.734C282.186 659.119 281.628 660.235 280.511 661.084C279.439 661.888 277.943 662.29 276.022 662.29C271.734 662.29 267.067 660.079 262.019 655.657L255.788 663.295C261.729 668.789 268.407 671.536 275.821 671.536C280.958 671.536 285.09 670.241 288.216 667.65C291.388 665.015 292.973 661.598 292.973 657.399C292.973 653.2 291.745 650.007 289.288 647.818C286.832 645.629 283.37 643.999 278.903 642.927C274.481 641.81 271.645 640.85 270.394 640.046C269.188 639.242 268.585 638.17 268.585 636.83C268.585 635.445 269.077 634.351 270.059 633.547ZM1799.21 659.811C1799.21 663.34 1797.89 666.176 1795.26 668.32C1792.67 670.464 1789.36 671.536 1785.34 671.536C1782.66 671.536 1779.87 671.067 1776.97 670.129C1774.06 669.146 1771.45 667.717 1769.13 665.841L1773.55 659.543C1777.3 662.446 1781.3 663.898 1785.54 663.898C1786.84 663.898 1787.86 663.652 1788.62 663.161C1789.38 662.625 1789.76 661.933 1789.76 661.084C1789.76 660.235 1789.23 659.454 1788.15 658.739C1787.13 658.024 1785.61 657.354 1783.6 656.729C1781.63 656.104 1780.11 655.568 1779.04 655.121C1778.01 654.674 1776.83 654.027 1775.49 653.178C1772.77 651.481 1771.4 648.979 1771.4 645.674C1771.4 642.324 1772.74 639.599 1775.42 637.5C1778.1 635.401 1781.57 634.351 1785.81 634.351C1790.05 634.351 1794.3 635.78 1798.54 638.639L1794.79 645.339C1791.66 643.195 1788.53 642.123 1785.41 642.123C1782.33 642.123 1780.78 642.972 1780.78 644.669C1780.78 645.607 1781.28 646.344 1782.26 646.88C1783.24 647.416 1784.87 648.041 1787.15 648.756C1789.43 649.471 1791.04 650.029 1791.97 650.431C1792.96 650.788 1794.12 651.369 1795.46 652.173C1797.96 653.692 1799.21 656.238 1799.21 659.811ZM1757.05 647.014C1758.53 644.87 1760.76 643.798 1763.75 643.798H1765.69L1765.63 634.351C1763.62 634.396 1761.63 634.932 1759.66 635.959C1757.74 636.986 1756.14 638.237 1754.84 639.711V634.954H1744.79V671H1754.84V655.389C1754.84 651.905 1755.58 649.113 1757.05 647.014ZM1709.32 652.977C1709.32 655.925 1710.15 658.337 1711.8 660.213C1713.5 662.044 1715.64 662.96 1718.23 662.96C1720.87 662.96 1723.01 662.044 1724.66 660.213C1726.36 658.337 1727.21 655.925 1727.21 652.977C1727.21 650.029 1726.36 647.617 1724.66 645.741C1723.01 643.865 1720.87 642.927 1718.23 642.927C1715.64 642.927 1713.5 643.865 1711.8 645.741C1710.15 647.617 1709.32 650.029 1709.32 652.977ZM1737.33 652.977C1737.33 658.203 1735.52 662.603 1731.9 666.176C1728.28 669.749 1723.72 671.536 1718.23 671.536C1712.78 671.536 1708.25 669.749 1704.63 666.176C1701.01 662.603 1699.2 658.203 1699.2 652.977C1699.2 647.751 1701.01 643.351 1704.63 639.778C1708.25 636.16 1712.78 634.351 1718.23 634.351C1723.72 634.351 1728.28 636.16 1731.9 639.778C1735.52 643.351 1737.33 647.751 1737.33 652.977ZM1684.16 658.337V642.19H1692.87V634.954H1684.16V624.167H1674.04V634.954H1669.82V642.19H1674.04V658.806C1674.04 662.737 1675.22 665.841 1677.59 668.119C1680 670.397 1682.93 671.536 1686.37 671.536C1689.85 671.536 1693.16 670.107 1696.28 667.248L1692.53 660.213C1691.24 661.91 1689.65 662.759 1687.77 662.759C1686.79 662.759 1685.94 662.379 1685.23 661.62C1684.51 660.816 1684.16 659.722 1684.16 658.337ZM1662.65 671H1652.6V634.954H1662.65V671ZM1653.4 630.398C1652.29 629.237 1651.73 627.83 1651.73 626.177C1651.73 624.524 1652.29 623.14 1653.4 622.023C1654.56 620.862 1655.97 620.281 1657.62 620.281C1659.28 620.281 1660.66 620.862 1661.78 622.023C1662.94 623.14 1663.52 624.524 1663.52 626.177C1663.52 627.83 1662.94 629.237 1661.78 630.398C1660.66 631.515 1659.28 632.073 1657.62 632.073C1655.97 632.073 1654.56 631.515 1653.4 630.398ZM1610.99 666.109C1614.34 669.727 1618.14 671.536 1622.38 671.536C1626.67 671.536 1630.22 669.772 1633.03 666.243V671H1643.08V621.286H1633.03V638.974C1630.27 635.892 1626.69 634.351 1622.31 634.351C1617.94 634.351 1614.12 636.071 1610.86 639.51C1607.6 642.905 1605.97 647.282 1605.97 652.642C1605.97 658.002 1607.64 662.491 1610.99 666.109ZM1618.7 660.213C1616.95 658.337 1616.08 655.947 1616.08 653.044C1616.08 650.141 1616.93 647.706 1618.63 645.741C1620.33 643.776 1622.36 642.793 1624.73 642.793C1627.09 642.793 1629.08 643.776 1630.69 645.741C1632.34 647.662 1633.17 650.096 1633.17 653.044C1633.17 655.947 1632.34 658.337 1630.69 660.213C1629.08 662.044 1627.12 662.96 1624.79 662.96C1622.47 662.96 1620.44 662.044 1618.7 660.213ZM1597.78 665.774C1593.72 669.615 1588.94 671.536 1583.44 671.536C1577.99 671.536 1573.48 669.861 1569.91 666.511C1566.34 663.116 1564.55 658.583 1564.55 652.91C1564.55 647.237 1566.36 642.726 1569.98 639.376C1573.64 636.026 1577.95 634.351 1582.91 634.351C1587.87 634.351 1592.06 635.847 1595.5 638.84C1598.99 641.833 1600.73 645.942 1600.73 651.168V656.528H1574.47C1574.78 658.493 1575.81 660.101 1577.55 661.352C1579.29 662.603 1581.25 663.228 1583.44 663.228C1586.97 663.228 1589.88 662.044 1592.15 659.677L1597.78 665.774ZM1590.55 649.359C1590.32 647.215 1589.52 645.562 1588.13 644.401C1586.75 643.24 1585.05 642.659 1583.04 642.659C1581.08 642.659 1579.27 643.262 1577.61 644.468C1575.96 645.674 1575 647.304 1574.73 649.359H1590.55ZM1507.29 666.109C1510.64 669.727 1514.43 671.536 1518.68 671.536C1522.96 671.536 1526.51 669.772 1529.33 666.243V671H1539.38V621.286H1529.33V638.974C1526.56 635.892 1522.99 634.351 1518.61 634.351C1514.23 634.351 1510.41 636.071 1507.15 639.51C1503.89 642.905 1502.26 647.282 1502.26 652.642C1502.26 658.002 1503.94 662.491 1507.29 666.109ZM1514.99 660.213C1513.25 658.337 1512.38 655.947 1512.38 653.044C1512.38 650.141 1513.23 647.706 1514.92 645.741C1516.62 643.776 1518.65 642.793 1521.02 642.793C1523.39 642.793 1525.38 643.776 1526.98 645.741C1528.64 647.662 1529.46 650.096 1529.46 653.044C1529.46 655.947 1528.64 658.337 1526.98 660.213C1525.38 662.044 1523.41 662.96 1521.09 662.96C1518.76 662.96 1516.73 662.044 1514.99 660.213ZM1494.08 665.774C1490.01 669.615 1485.23 671.536 1479.74 671.536C1474.29 671.536 1469.78 669.861 1466.2 666.511C1462.63 663.116 1460.84 658.583 1460.84 652.91C1460.84 647.237 1462.65 642.726 1466.27 639.376C1469.93 636.026 1474.24 634.351 1479.2 634.351C1484.16 634.351 1488.36 635.847 1491.8 638.84C1495.28 641.833 1497.02 645.942 1497.02 651.168V656.528H1470.76C1471.07 658.493 1472.1 660.101 1473.84 661.352C1475.58 662.603 1477.55 663.228 1479.74 663.228C1483.27 663.228 1486.17 662.044 1488.45 659.677L1494.08 665.774ZM1486.84 649.359C1486.62 647.215 1485.81 645.562 1484.43 644.401C1483.04 643.24 1481.35 642.659 1479.34 642.659C1477.37 642.659 1475.56 643.262 1473.91 644.468C1472.26 645.674 1471.3 647.304 1471.03 649.359H1486.84ZM1451.23 668.32C1453.86 666.176 1455.18 663.34 1455.18 659.811C1455.18 656.238 1453.93 653.692 1451.43 652.173C1450.09 651.369 1448.93 650.788 1447.94 650.431C1447.01 650.029 1445.4 649.471 1443.12 648.756C1440.84 648.041 1439.21 647.416 1438.23 646.88C1437.25 646.344 1436.75 645.607 1436.75 644.669C1436.75 642.972 1438.3 642.123 1441.38 642.123C1444.5 642.123 1447.63 643.195 1450.76 645.339L1454.51 638.639C1450.27 635.78 1446.02 634.351 1441.78 634.351C1437.54 634.351 1434.07 635.401 1431.39 637.5C1428.71 639.599 1427.37 642.324 1427.37 645.674C1427.37 648.979 1428.74 651.481 1431.46 653.178C1432.8 654.027 1433.99 654.674 1435.01 655.121C1436.08 655.568 1437.6 656.104 1439.57 656.729C1441.58 657.354 1443.1 658.024 1444.12 658.739C1445.2 659.454 1445.73 660.235 1445.73 661.084C1445.73 661.933 1445.35 662.625 1444.59 663.161C1443.83 663.652 1442.81 663.898 1441.51 663.898C1437.27 663.898 1433.27 662.446 1429.52 659.543L1425.1 665.841C1427.42 667.717 1430.03 669.146 1432.94 670.129C1435.84 671.067 1438.63 671.536 1441.31 671.536C1445.33 671.536 1448.64 670.464 1451.23 668.32ZM1404.72 634.351C1408.92 634.351 1412.65 636.115 1415.91 639.644C1419.21 643.128 1420.87 647.528 1420.87 652.843C1420.87 658.158 1419.21 662.603 1415.91 666.176C1412.65 669.749 1408.81 671.536 1404.38 671.536C1400.01 671.536 1396.48 669.772 1393.8 666.243V683.998H1383.75V634.954H1393.8V638.974C1396.88 635.892 1400.52 634.351 1404.72 634.351ZM1393.66 653.044C1393.66 655.947 1394.47 658.337 1396.08 660.213C1397.73 662.044 1399.72 662.96 1402.04 662.96C1404.36 662.96 1406.39 662.044 1408.14 660.213C1409.88 658.337 1410.75 655.947 1410.75 653.044C1410.75 650.141 1409.9 647.706 1408.2 645.741C1406.51 643.776 1404.47 642.793 1402.11 642.793C1399.74 642.793 1397.73 643.776 1396.08 645.741C1394.47 647.662 1393.66 650.096 1393.66 653.044ZM1365.14 671H1374.59V648.019C1374.59 643.284 1373.2 639.823 1370.43 637.634C1367.66 635.445 1364.09 634.351 1359.71 634.351C1353.64 634.351 1348.23 636.071 1343.5 639.51L1347.99 646.009C1349.33 644.982 1350.96 644.133 1352.88 643.463C1354.84 642.748 1356.7 642.391 1358.44 642.391C1362.5 642.391 1364.54 644.312 1364.54 648.153V648.354H1357.03C1352.39 648.354 1348.72 649.27 1346.04 651.101C1343.36 652.932 1342.02 655.702 1342.02 659.409C1342.02 663.072 1343.32 666.02 1345.91 668.253C1348.5 670.442 1351.69 671.536 1355.49 671.536C1359.33 671.536 1362.55 669.906 1365.14 666.645V671ZM1364.47 655.523V657.265C1364.47 659.096 1363.78 660.57 1362.39 661.687C1361.05 662.759 1359.49 663.295 1357.7 663.295C1355.92 663.295 1354.53 662.96 1353.55 662.29C1352.61 661.575 1352.14 660.57 1352.14 659.275C1352.14 656.774 1354.15 655.523 1358.17 655.523H1364.47ZM1306.89 671V624.167H1317.34V661.687H1337.31V671H1306.89ZM1267.33 665.841C1267.33 667.628 1268.11 669.079 1269.67 670.196L1267.12 677.633H1273.76L1277.78 670.732C1279.07 668.633 1279.72 666.846 1279.72 665.372C1279.72 663.853 1279.1 662.536 1277.84 661.419C1276.64 660.302 1275.19 659.744 1273.49 659.744C1271.79 659.744 1270.34 660.325 1269.14 661.486C1267.93 662.603 1267.33 664.054 1267.33 665.841ZM1246.62 662.625C1249.97 662.625 1252.99 660.95 1255.67 657.6L1261.63 664.3C1256.98 669.124 1251.96 671.536 1246.55 671.536C1241.15 671.536 1236.57 669.839 1232.82 666.444C1229.11 663.005 1227.26 658.538 1227.26 653.044C1227.26 647.505 1229.13 643.016 1232.89 639.577C1236.68 636.093 1241.17 634.351 1246.35 634.351C1248.94 634.351 1251.56 634.887 1254.19 635.959C1256.87 637.031 1259.22 638.617 1261.23 640.716L1256 647.55C1254.84 646.165 1253.41 645.093 1251.71 644.334C1250.06 643.575 1248.41 643.195 1246.75 643.195C1244.12 643.195 1241.84 644.066 1239.92 645.808C1238.04 647.505 1237.11 649.895 1237.11 652.977C1237.11 656.014 1238.04 658.382 1239.92 660.079C1241.84 661.776 1244.07 662.625 1246.62 662.625ZM1209.77 671H1219.82V634.954H1209.77V671ZM1208.9 626.177C1208.9 627.83 1209.46 629.237 1210.58 630.398C1211.74 631.515 1213.14 632.073 1214.8 632.073C1216.45 632.073 1217.83 631.515 1218.95 630.398C1220.11 629.237 1220.69 627.83 1220.69 626.177C1220.69 624.524 1220.11 623.14 1218.95 622.023C1217.83 620.862 1216.45 620.281 1214.8 620.281C1213.14 620.281 1211.74 620.862 1210.58 622.023C1209.46 623.14 1208.9 624.524 1208.9 626.177ZM1179.55 671.536C1175.31 671.536 1171.51 669.727 1168.16 666.109C1164.81 662.491 1163.14 658.002 1163.14 652.642C1163.14 647.282 1164.77 642.905 1168.03 639.51C1171.29 636.071 1175.11 634.351 1179.49 634.351C1183.86 634.351 1187.44 635.892 1190.21 638.974V621.286H1200.26V671H1190.21V666.243C1187.39 669.772 1183.84 671.536 1179.55 671.536ZM1173.26 653.044C1173.26 655.947 1174.13 658.337 1175.87 660.213C1177.61 662.044 1179.64 662.96 1181.97 662.96C1184.29 662.96 1186.25 662.044 1187.86 660.213C1189.51 658.337 1190.34 655.947 1190.34 653.044C1190.34 650.096 1189.51 647.662 1187.86 645.741C1186.25 643.776 1184.27 642.793 1181.9 642.793C1179.53 642.793 1177.5 643.776 1175.8 645.741C1174.1 647.706 1173.26 650.141 1173.26 653.044ZM1132.16 660.213C1130.5 658.337 1129.68 655.925 1129.68 652.977C1129.68 650.029 1130.5 647.617 1132.16 645.741C1133.85 643.865 1136 642.927 1138.59 642.927C1141.22 642.927 1143.37 643.865 1145.02 645.741C1146.72 647.617 1147.57 650.029 1147.57 652.977C1147.57 655.925 1146.72 658.337 1145.02 660.213C1143.37 662.044 1141.22 662.96 1138.59 662.96C1136 662.96 1133.85 662.044 1132.16 660.213ZM1152.26 666.176C1155.87 662.603 1157.68 658.203 1157.68 652.977C1157.68 647.751 1155.87 643.351 1152.26 639.778C1148.64 636.16 1144.08 634.351 1138.59 634.351C1133.14 634.351 1128.61 636.16 1124.99 639.778C1121.37 643.351 1119.56 647.751 1119.56 652.977C1119.56 658.203 1121.37 662.603 1124.99 666.176C1128.61 669.749 1133.14 671.536 1138.59 671.536C1144.08 671.536 1148.64 669.749 1152.26 666.176ZM1113.96 659.811C1113.96 663.34 1112.65 666.176 1110.01 668.32C1107.42 670.464 1104.11 671.536 1100.09 671.536C1097.41 671.536 1094.62 671.067 1091.72 670.129C1088.82 669.146 1086.2 667.717 1083.88 665.841L1088.3 659.543C1092.05 662.446 1096.05 663.898 1100.3 663.898C1101.59 663.898 1102.62 663.652 1103.38 663.161C1104.14 662.625 1104.52 661.933 1104.52 661.084C1104.52 660.235 1103.98 659.454 1102.91 658.739C1101.88 658.024 1100.36 657.354 1098.35 656.729C1096.39 656.104 1094.87 655.568 1093.8 655.121C1092.77 654.674 1091.59 654.027 1090.25 653.178C1087.52 651.481 1086.16 648.979 1086.16 645.674C1086.16 642.324 1087.5 639.599 1090.18 637.5C1092.86 635.401 1096.32 634.351 1100.56 634.351C1104.81 634.351 1109.05 635.78 1113.29 638.639L1109.54 645.339C1106.42 643.195 1103.29 642.123 1100.16 642.123C1097.08 642.123 1095.54 642.972 1095.54 644.669C1095.54 645.607 1096.03 646.344 1097.01 646.88C1098 647.416 1099.63 648.041 1101.9 648.756C1104.18 649.471 1105.79 650.029 1106.73 650.431C1107.71 650.788 1108.87 651.369 1110.21 652.173C1112.71 653.692 1113.96 656.238 1113.96 659.811ZM1067.27 671H1077.32V634.954H1067.27V671ZM1066.39 626.177C1066.39 627.83 1066.95 629.237 1068.07 630.398C1069.23 631.515 1070.64 632.073 1072.29 632.073C1073.94 632.073 1075.33 631.515 1076.44 630.398C1077.61 629.237 1078.19 627.83 1078.19 626.177C1078.19 624.524 1077.61 623.14 1076.44 622.023C1075.33 620.862 1073.94 620.281 1072.29 620.281C1070.64 620.281 1069.23 620.862 1068.07 622.023C1066.95 623.14 1066.39 624.524 1066.39 626.177ZM1043.61 634.351C1047.81 634.351 1051.54 636.115 1054.8 639.644C1058.11 643.128 1059.76 647.528 1059.76 652.843C1059.76 658.158 1058.11 662.603 1054.8 666.176C1051.54 669.749 1047.7 671.536 1043.28 671.536C1038.9 671.536 1035.37 669.772 1032.69 666.243V683.998H1022.64V634.954H1032.69V638.974C1035.77 635.892 1039.41 634.351 1043.61 634.351ZM1032.56 653.044C1032.56 655.947 1033.36 658.337 1034.97 660.213C1036.62 662.044 1038.61 662.96 1040.93 662.96C1043.26 662.96 1045.29 662.044 1047.03 660.213C1048.77 658.337 1049.64 655.947 1049.64 653.044C1049.64 650.141 1048.79 647.706 1047.1 645.741C1045.4 643.776 1043.37 642.793 1041 642.793C1038.63 642.793 1036.62 643.776 1034.97 645.741C1033.36 647.662 1032.56 650.096 1032.56 653.044ZM1013.58 633.48V624.167H979.81V671H1014.31V661.754H990.262V652.039H1011.23V643.128H990.262V633.48H1013.58ZM2266.65 681H2256.6V631.286H2266.65V681ZM2236.99 644.954V664.384C2236.99 667.153 2236.25 669.275 2234.78 670.749C2233.3 672.178 2231.56 672.893 2229.55 672.893C2225.49 672.893 2223.45 670.124 2223.45 664.585V644.954H2213.34V666.796C2213.34 671.665 2214.68 675.35 2217.36 677.851C2220.04 680.308 2223.34 681.536 2227.27 681.536C2231.25 681.536 2234.49 679.772 2236.99 676.243V681H2247.11V644.954H2236.99ZM2204.58 681H2195.13V676.645C2192.54 679.906 2189.32 681.536 2185.48 681.536C2181.69 681.536 2178.49 680.442 2175.9 678.253C2173.31 676.02 2172.02 673.072 2172.02 669.409C2172.02 665.702 2173.36 662.932 2176.04 661.101C2178.72 659.27 2182.38 658.354 2187.02 658.354H2194.53V658.153C2194.53 654.312 2192.5 652.391 2188.43 652.391C2186.69 652.391 2184.83 652.749 2182.87 653.463C2180.95 654.133 2179.32 654.982 2177.98 656.009L2173.49 649.51C2178.22 646.071 2183.63 644.351 2189.7 644.351C2194.08 644.351 2197.65 645.445 2200.42 647.634C2203.19 649.823 2204.58 653.284 2204.58 658.019V681ZM2194.46 667.265V665.523H2188.16C2184.14 665.523 2182.13 666.774 2182.13 669.275C2182.13 670.57 2182.6 671.576 2183.54 672.29C2184.52 672.96 2185.91 673.295 2187.69 673.295C2189.48 673.295 2191.04 672.759 2192.38 671.687C2193.77 670.57 2194.46 669.096 2194.46 667.265ZM2141.22 681V661.57C2141.22 658.756 2141.95 656.634 2143.43 655.205C2144.95 653.731 2146.71 652.994 2148.72 652.994C2152.79 652.994 2154.82 655.763 2154.82 661.302V681H2164.87V659.091C2164.87 654.625 2163.57 651.051 2160.98 648.371C2158.39 645.691 2155.2 644.351 2151.4 644.351C2147.65 644.351 2144.25 645.892 2141.22 648.974V631.286H2131.17V681H2141.22ZM2094.07 662.24C2094.07 659.337 2093.27 657.059 2091.66 655.406C2090.05 653.754 2088.06 652.927 2085.7 652.927C2083.33 652.927 2081.27 653.754 2079.53 655.406C2077.84 657.059 2076.99 659.315 2076.99 662.173C2076.99 665.032 2077.81 667.354 2079.47 669.141C2081.16 670.883 2083.22 671.754 2085.63 671.754C2088.04 671.754 2090.05 670.883 2091.66 669.141C2093.27 667.399 2094.07 665.099 2094.07 662.24ZM2095.48 674.903C2092.31 678.432 2088.35 680.196 2083.62 680.196C2078.93 680.196 2074.95 678.611 2071.69 675.439C2068.48 672.223 2066.87 667.957 2066.87 662.642C2066.87 657.282 2068.52 652.905 2071.83 649.51C2075.18 646.071 2079 644.351 2083.28 644.351C2087.57 644.351 2091.12 646.116 2093.94 649.644V644.887H2103.99V676.31C2103.99 679.526 2103.43 682.385 2102.31 684.886C2101.2 687.388 2099.7 689.353 2097.82 690.782C2094.12 693.73 2089.74 695.204 2084.69 695.204C2082.01 695.204 2079.26 694.758 2076.45 693.864C2073.68 693.016 2071.25 691.787 2069.15 690.179L2073.03 682.608C2076.34 685.109 2079.82 686.36 2083.49 686.36C2087.19 686.36 2090.12 685.444 2092.26 683.613C2094.41 681.782 2095.48 678.879 2095.48 674.903ZM2036.07 681V660.9C2036.07 658.086 2036.81 655.965 2038.28 654.535C2039.8 653.061 2041.57 652.324 2043.58 652.324C2047.64 652.324 2049.67 655.094 2049.67 660.632V681H2059.72V659.091C2059.72 654.625 2058.43 651.051 2055.84 648.371C2053.29 645.691 2050.12 644.351 2046.32 644.351C2042.53 644.351 2039.11 645.892 2036.07 648.974V644.954H2026.02V681H2036.07ZM1990.55 662.977C1990.55 665.925 1991.38 668.337 1993.03 670.213C1994.73 672.044 1996.87 672.96 1999.46 672.96C2002.1 672.96 2004.24 672.044 2005.89 670.213C2007.59 668.337 2008.44 665.925 2008.44 662.977C2008.44 660.029 2007.59 657.617 2005.89 655.741C2004.24 653.865 2002.1 652.927 1999.46 652.927C1996.87 652.927 1994.73 653.865 1993.03 655.741C1991.38 657.617 1990.55 660.029 1990.55 662.977ZM2018.56 662.977C2018.56 668.203 2016.75 672.603 2013.13 676.176C2009.51 679.75 2004.96 681.536 1999.46 681.536C1994.01 681.536 1989.48 679.75 1985.86 676.176C1982.24 672.603 1980.43 668.203 1980.43 662.977C1980.43 657.751 1982.24 653.352 1985.86 649.778C1989.48 646.16 1994.01 644.351 1999.46 644.351C2004.96 644.351 2009.51 646.16 2013.13 649.778C2016.75 653.352 2018.56 657.751 2018.56 662.977ZM1945.89 634.167V681H1976.31V671.687H1956.35V634.167H1945.89Z" fill="white"/>
<path d="M256.965 706.137H261.331V732H256.965V706.137ZM271.863 721.344V732H267.719V712.316H271.863V715.905C272.529 714.696 273.442 713.747 274.601 713.056C275.785 712.365 277.055 712.02 278.412 712.02C280.632 712.02 282.42 712.698 283.777 714.055C285.158 715.412 285.849 717.373 285.849 719.938V732H281.705V721.196C281.705 717.57 280.2 715.757 277.191 715.757C275.76 715.757 274.515 716.238 273.454 717.2C272.393 718.137 271.863 719.519 271.863 721.344ZM295.783 732H291.639V712.316H295.783V732ZM291.898 708.394C291.38 707.876 291.121 707.259 291.121 706.544C291.121 705.829 291.38 705.212 291.898 704.694C292.416 704.176 293.033 703.917 293.748 703.917C294.463 703.917 295.08 704.176 295.598 704.694C296.116 705.212 296.375 705.829 296.375 706.544C296.375 707.259 296.116 707.876 295.598 708.394C295.08 708.912 294.463 709.171 293.748 709.171C293.033 709.171 292.416 708.912 291.898 708.394ZM306.898 715.646V725.636C306.898 726.573 307.145 727.326 307.638 727.893C308.131 728.436 308.822 728.707 309.71 728.707C310.598 728.707 311.449 728.275 312.263 727.412L313.965 730.335C312.51 731.642 310.894 732.296 309.118 732.296C307.367 732.296 305.862 731.692 304.604 730.483C303.371 729.25 302.754 727.597 302.754 725.525V715.646H300.275V712.316H302.754V706.137H306.898V712.316H312.078V715.646H306.898ZM321.401 732H317.257V712.316H321.401V732ZM317.516 708.394C316.998 707.876 316.739 707.259 316.739 706.544C316.739 705.829 316.998 705.212 317.516 704.694C318.034 704.176 318.651 703.917 319.366 703.917C320.081 703.917 320.698 704.176 321.216 704.694C321.734 705.212 321.993 705.829 321.993 706.544C321.993 707.259 321.734 707.876 321.216 708.394C320.698 708.912 320.081 709.171 319.366 709.171C318.651 709.171 318.034 708.912 317.516 708.394ZM343.357 732H339.583V729.373C337.955 731.322 335.772 732.296 333.034 732.296C330.987 732.296 329.285 731.716 327.928 730.557C326.596 729.398 325.93 727.856 325.93 725.932C325.93 723.983 326.646 722.528 328.076 721.566C329.507 720.604 331.443 720.123 333.885 720.123H339.25V719.383C339.25 716.768 337.795 715.461 334.884 715.461C333.059 715.461 331.16 716.127 329.186 717.459L327.336 714.869C329.729 712.97 332.442 712.02 335.476 712.02C337.795 712.02 339.682 712.612 341.137 713.796C342.617 714.955 343.357 716.793 343.357 719.309V732ZM339.213 724.674V723.009H334.551C331.567 723.009 330.074 723.946 330.074 725.821C330.074 726.783 330.444 727.523 331.184 728.041C331.924 728.534 332.948 728.781 334.255 728.781C335.587 728.781 336.747 728.411 337.733 727.671C338.72 726.931 339.213 725.932 339.213 724.674ZM353.27 732H349.126V704.546H353.27V732ZM363.423 732H359.279V704.546H363.423V732ZM371.912 739.844C370.111 739.844 368.483 739.19 367.028 737.883L368.915 734.516C369.778 735.33 370.666 735.737 371.579 735.737C372.516 735.737 373.268 735.404 373.836 734.738C374.428 734.072 374.724 733.344 374.724 732.555C374.724 732.21 372.072 725.463 366.769 712.316H371.209L377.092 726.82L382.975 712.316H387.415L377.869 735.7C377.301 736.983 376.487 737.994 375.427 738.734C374.366 739.474 373.194 739.844 371.912 739.844ZM408.861 732.296C406.37 732.296 404.199 731.359 402.349 729.484C400.499 727.609 399.574 725.143 399.574 722.084C399.574 719.025 400.524 716.583 402.423 714.758C404.323 712.933 406.58 712.02 409.194 712.02C411.834 712.02 413.955 713.13 415.558 715.35V704.546H419.702V732H415.558V729.04C414.029 731.211 411.797 732.296 408.861 732.296ZM403.718 722.269C403.718 724.144 404.323 725.673 405.531 726.857C406.74 728.041 408.158 728.633 409.786 728.633C411.414 728.633 412.796 728.041 413.93 726.857C415.065 725.648 415.632 724.107 415.632 722.232C415.632 720.357 415.065 718.791 413.93 717.533C412.796 716.275 411.402 715.646 409.749 715.646C408.097 715.646 406.678 716.275 405.494 717.533C404.31 718.791 403.718 720.37 403.718 722.269ZM436.015 716.201C433.967 716.201 432.426 716.867 431.39 718.199C430.354 719.531 429.836 721.319 429.836 723.564V732H425.692V712.316H429.836V716.275C430.502 715.042 431.402 714.03 432.537 713.241C433.696 712.452 434.917 712.045 436.2 712.02L436.237 716.201C436.163 716.201 436.089 716.201 436.015 716.201ZM444.542 732H440.398V712.316H444.542V732ZM440.657 708.394C440.139 707.876 439.88 707.259 439.88 706.544C439.88 705.829 440.139 705.212 440.657 704.694C441.175 704.176 441.791 703.917 442.507 703.917C443.222 703.917 443.839 704.176 444.357 704.694C444.875 705.212 445.134 705.829 445.134 706.544C445.134 707.259 444.875 707.876 444.357 708.394C443.839 708.912 443.222 709.171 442.507 709.171C441.791 709.171 441.175 708.912 440.657 708.394ZM455.768 732L447.85 712.316H452.142L458.136 727.19L464.13 712.316H468.422L460.504 732H455.768ZM490.04 723.971H474.611C474.709 725.402 475.363 726.561 476.572 727.449C477.78 728.312 479.162 728.744 480.716 728.744C483.182 728.744 485.057 727.967 486.34 726.413L488.708 729.003C486.586 731.198 483.824 732.296 480.42 732.296C477.657 732.296 475.301 731.383 473.353 729.558C471.429 727.708 470.467 725.241 470.467 722.158C470.467 719.05 471.453 716.583 473.427 714.758C475.4 712.933 477.719 712.02 480.383 712.02C483.071 712.02 485.353 712.834 487.228 714.462C489.102 716.065 490.04 718.285 490.04 721.122V723.971ZM474.611 720.715H485.896C485.896 719.062 485.378 717.792 484.342 716.904C483.306 716.016 482.023 715.572 480.494 715.572C478.989 715.572 477.632 716.041 476.424 716.978C475.215 717.891 474.611 719.136 474.611 720.715ZM498.741 721.344V732H494.597V712.316H498.741V715.905C499.407 714.696 500.32 713.747 501.479 713.056C502.663 712.365 503.933 712.02 505.29 712.02C507.51 712.02 509.298 712.698 510.655 714.055C512.036 715.412 512.727 717.373 512.727 719.938V732H508.583V721.196C508.583 717.57 507.078 715.757 504.069 715.757C502.638 715.757 501.393 716.238 500.332 717.2C499.271 718.137 498.741 719.519 498.741 721.344ZM539.215 712.02C541.854 712.02 544.111 712.933 545.986 714.758C547.861 716.583 548.798 719.013 548.798 722.047C548.798 725.081 547.861 727.548 545.986 729.447C544.136 731.346 541.965 732.296 539.474 732.296C537.007 732.296 534.787 731.211 532.814 729.04V732H528.67V704.546H532.814V715.757C534.442 713.266 536.576 712.02 539.215 712.02ZM532.74 722.195C532.74 724.07 533.307 725.611 534.442 726.82C535.577 728.004 536.958 728.596 538.586 728.596C540.214 728.596 541.632 728.004 542.841 726.82C544.05 725.636 544.654 724.107 544.654 722.232C544.654 720.333 544.062 718.766 542.878 717.533C541.694 716.275 540.276 715.646 538.623 715.646C536.97 715.646 535.577 716.275 534.442 717.533C533.307 718.766 532.74 720.32 532.74 722.195ZM556.008 739.844C554.208 739.844 552.58 739.19 551.124 737.883L553.011 734.516C553.875 735.33 554.763 735.737 555.675 735.737C556.613 735.737 557.365 735.404 557.932 734.738C558.524 734.072 558.82 733.344 558.82 732.555C558.82 732.21 556.169 725.463 550.865 712.316H555.305L561.188 726.82L567.071 712.316H571.511L561.965 735.7C561.398 736.983 560.584 737.994 559.523 738.734C558.463 739.474 557.291 739.844 556.008 739.844ZM593.661 732.296C590.923 732.296 588.567 731.371 586.594 729.521C584.621 727.646 583.634 725.204 583.634 722.195C583.634 719.186 584.658 716.744 586.705 714.869C588.777 712.97 591.293 712.02 594.253 712.02C597.213 712.02 599.717 713.044 601.764 715.091L599.322 718.088C597.62 716.608 595.906 715.868 594.179 715.868C592.452 715.868 590.948 716.448 589.665 717.607C588.407 718.742 587.778 720.222 587.778 722.047C587.778 723.848 588.407 725.377 589.665 726.635C590.923 727.893 592.465 728.522 594.29 728.522C596.14 728.522 597.879 727.683 599.507 726.006L601.949 728.67C599.556 731.087 596.794 732.296 593.661 732.296ZM620.011 722.972V712.316H624.155V732H620.011V728.411C619.345 729.62 618.42 730.569 617.236 731.26C616.077 731.951 614.819 732.296 613.462 732.296C611.242 732.296 609.442 731.618 608.06 730.261C606.704 728.904 606.025 726.943 606.025 724.378V712.316H610.169V723.12C610.169 726.746 611.674 728.559 614.683 728.559C616.114 728.559 617.36 728.09 618.42 727.153C619.481 726.191 620.011 724.797 620.011 722.972ZM640.49 716.201C638.443 716.201 636.901 716.867 635.865 718.199C634.829 719.531 634.311 721.319 634.311 723.564V732H630.167V712.316H634.311V716.275C634.977 715.042 635.877 714.03 637.012 713.241C638.171 712.452 639.393 712.045 640.675 712.02L640.712 716.201C640.638 716.201 640.564 716.201 640.49 716.201ZM649.017 732H644.873V712.316H649.017V732ZM645.132 708.394C644.614 707.876 644.355 707.259 644.355 706.544C644.355 705.829 644.614 705.212 645.132 704.694C645.65 704.176 646.267 703.917 646.982 703.917C647.698 703.917 648.314 704.176 648.832 704.694C649.35 705.212 649.609 705.829 649.609 706.544C649.609 707.259 649.35 707.876 648.832 708.394C648.314 708.912 647.698 709.171 646.982 709.171C646.267 709.171 645.65 708.912 645.132 708.394ZM659.615 726.82C660.799 728.004 662.291 728.596 664.092 728.596C665.892 728.596 667.372 728.004 668.532 726.82C669.716 725.611 670.308 724.057 670.308 722.158C670.308 720.259 669.716 718.717 668.532 717.533C667.372 716.324 665.892 715.72 664.092 715.72C662.291 715.72 660.799 716.324 659.615 717.533C658.455 718.717 657.876 720.259 657.876 722.158C657.876 724.057 658.455 725.611 659.615 726.82ZM671.492 729.373C669.518 731.322 667.052 732.296 664.092 732.296C661.132 732.296 658.665 731.322 656.692 729.373C654.718 727.4 653.732 724.995 653.732 722.158C653.732 719.321 654.718 716.929 656.692 714.98C658.665 713.007 661.132 712.02 664.092 712.02C667.052 712.02 669.518 713.007 671.492 714.98C673.465 716.929 674.452 719.321 674.452 722.158C674.452 724.995 673.465 727.4 671.492 729.373ZM693.186 726.117C693.186 727.992 692.508 729.496 691.151 730.631C689.795 731.741 688.056 732.296 685.934 732.296C684.504 732.296 683.011 732.037 681.457 731.519C679.928 731.001 678.571 730.273 677.387 729.336L679.385 726.117C681.679 727.844 683.899 728.707 686.045 728.707C686.983 728.707 687.723 728.497 688.265 728.078C688.808 727.634 689.079 727.079 689.079 726.413C689.079 725.426 687.772 724.538 685.157 723.749C684.96 723.675 684.812 723.626 684.713 723.601C680.619 722.491 678.571 720.641 678.571 718.051C678.571 716.226 679.274 714.77 680.68 713.685C682.111 712.575 683.961 712.02 686.23 712.02C688.5 712.02 690.646 712.686 692.668 714.018L691.114 717.089C689.511 716.028 687.772 715.498 685.897 715.498C684.911 715.498 684.109 715.683 683.492 716.053C682.876 716.398 682.567 716.929 682.567 717.644C682.567 718.285 682.888 718.754 683.529 719.05C683.973 719.272 684.59 719.482 685.379 719.679C686.193 719.876 686.909 720.074 687.525 720.271C688.142 720.468 688.734 720.69 689.301 720.937C689.893 721.184 690.522 721.529 691.188 721.973C692.52 722.861 693.186 724.242 693.186 726.117ZM702.024 732H697.88V712.316H702.024V732ZM698.139 708.394C697.621 707.876 697.362 707.259 697.362 706.544C697.362 705.829 697.621 705.212 698.139 704.694C698.657 704.176 699.274 703.917 699.989 703.917C700.704 703.917 701.321 704.176 701.839 704.694C702.357 705.212 702.616 705.829 702.616 706.544C702.616 707.259 702.357 707.876 701.839 708.394C701.321 708.912 700.704 709.171 699.989 709.171C699.274 709.171 698.657 708.912 698.139 708.394ZM713.139 715.646V725.636C713.139 726.573 713.386 727.326 713.879 727.893C714.373 728.436 715.063 728.707 715.951 728.707C716.839 728.707 717.69 728.275 718.504 727.412L720.206 730.335C718.751 731.642 717.135 732.296 715.359 732.296C713.608 732.296 712.103 731.692 710.845 730.483C709.612 729.25 708.995 727.597 708.995 725.525V715.646H706.516V712.316H708.995V706.137H713.139V712.316H718.319V715.646H713.139ZM725.977 739.844C724.177 739.844 722.549 739.19 721.093 737.883L722.98 734.516C723.844 735.33 724.732 735.737 725.644 735.737C726.582 735.737 727.334 735.404 727.901 734.738C728.493 734.072 728.789 733.344 728.789 732.555C728.789 732.21 726.138 725.463 720.834 712.316H725.274L731.157 726.82L737.04 712.316H741.48L731.934 735.7C731.367 736.983 730.553 737.994 729.492 738.734C728.432 739.474 727.26 739.844 725.977 739.844ZM759.042 721.344V732H754.898V712.316H759.042V715.905C759.634 714.696 760.522 713.747 761.706 713.056C762.914 712.365 764.209 712.02 765.591 712.02C768.699 712.02 770.808 713.303 771.918 715.868C773.866 713.303 776.296 712.02 779.207 712.02C781.427 712.02 783.215 712.698 784.572 714.055C785.953 715.412 786.644 717.373 786.644 719.938V732H782.5V721.196C782.5 717.57 780.995 715.757 777.986 715.757C776.58 715.757 775.346 716.213 774.286 717.126C773.25 718.014 772.707 719.321 772.658 721.048V732H768.514V721.196C768.514 719.321 768.181 717.952 767.515 717.089C766.849 716.201 765.8 715.757 764.37 715.757C762.939 715.757 761.693 716.238 760.633 717.2C759.572 718.137 759.042 719.519 759.042 721.344ZM796.991 726.82C798.175 728.004 799.668 728.596 801.468 728.596C803.269 728.596 804.749 728.004 805.908 726.82C807.092 725.611 807.684 724.057 807.684 722.158C807.684 720.259 807.092 718.717 805.908 717.533C804.749 716.324 803.269 715.72 801.468 715.72C799.668 715.72 798.175 716.324 796.991 717.533C795.832 718.717 795.252 720.259 795.252 722.158C795.252 724.057 795.832 725.611 796.991 726.82ZM808.868 729.373C806.895 731.322 804.428 732.296 801.468 732.296C798.508 732.296 796.042 731.322 794.068 729.373C792.095 727.4 791.108 724.995 791.108 722.158C791.108 719.321 792.095 716.929 794.068 714.98C796.042 713.007 798.508 712.02 801.468 712.02C804.428 712.02 806.895 713.007 808.868 714.98C810.842 716.929 811.828 719.321 811.828 722.158C811.828 724.995 810.842 727.4 808.868 729.373ZM826.863 716.201C824.816 716.201 823.274 716.867 822.238 718.199C821.202 719.531 820.684 721.319 820.684 723.564V732H816.54V712.316H820.684V716.275C821.35 715.042 822.251 714.03 823.385 713.241C824.545 712.452 825.766 712.045 827.048 712.02L827.085 716.201C827.011 716.201 826.937 716.201 826.863 716.201ZM849.561 723.971H834.132C834.231 725.402 834.885 726.561 836.093 727.449C837.302 728.312 838.683 728.744 840.237 728.744C842.704 728.744 844.579 727.967 845.861 726.413L848.229 729.003C846.108 731.198 843.345 732.296 839.941 732.296C837.179 732.296 834.823 731.383 832.874 729.558C830.95 727.708 829.988 725.241 829.988 722.158C829.988 719.05 830.975 716.583 832.948 714.758C834.922 712.933 837.24 712.02 839.904 712.02C842.593 712.02 844.875 712.834 846.749 714.462C848.624 716.065 849.561 718.285 849.561 721.122V723.971ZM834.132 720.715H845.417C845.417 719.062 844.899 717.792 843.863 716.904C842.827 716.016 841.545 715.572 840.015 715.572C838.511 715.572 837.154 716.041 835.945 716.978C834.737 717.891 834.132 719.136 834.132 720.715ZM261.479 760.646V770.636C261.479 771.573 261.726 772.326 262.219 772.893C262.713 773.436 263.403 773.707 264.291 773.707C265.179 773.707 266.03 773.275 266.844 772.412L268.546 775.335C267.091 776.642 265.475 777.296 263.699 777.296C261.948 777.296 260.443 776.692 259.185 775.483C257.952 774.25 257.335 772.597 257.335 770.525V760.646H254.856V757.316H257.335V751.137H261.479V757.316H266.659V760.646H261.479ZM275.982 766.344V777H271.838V749.583H275.982V760.905C276.574 759.696 277.462 758.747 278.646 758.056C279.855 757.365 281.15 757.02 282.531 757.02C284.751 757.02 286.539 757.698 287.896 759.055C289.277 760.412 289.968 762.373 289.968 764.938V777H285.824V766.196C285.824 762.57 284.319 760.757 281.31 760.757C279.879 760.757 278.634 761.238 277.573 762.2C276.512 763.137 275.982 764.519 275.982 766.344ZM311.705 777H307.931V774.373C306.303 776.322 304.12 777.296 301.382 777.296C299.335 777.296 297.633 776.716 296.276 775.557C294.944 774.398 294.278 772.856 294.278 770.932C294.278 768.983 294.993 767.528 296.424 766.566C297.855 765.604 299.791 765.123 302.233 765.123H307.598V764.383C307.598 761.768 306.143 760.461 303.232 760.461C301.407 760.461 299.507 761.127 297.534 762.459L295.684 759.869C298.077 757.97 300.79 757.02 303.824 757.02C306.143 757.02 308.03 757.612 309.485 758.796C310.965 759.955 311.705 761.793 311.705 764.309V777ZM307.561 769.674V768.009H302.899C299.914 768.009 298.422 768.946 298.422 770.821C298.422 771.783 298.792 772.523 299.532 773.041C300.272 773.534 301.296 773.781 302.603 773.781C303.935 773.781 305.094 773.411 306.081 772.671C307.068 771.931 307.561 770.932 307.561 769.674ZM321.618 766.344V777H317.474V757.316H321.618V760.905C322.284 759.696 323.196 758.747 324.356 758.056C325.54 757.365 326.81 757.02 328.167 757.02C330.387 757.02 332.175 757.698 333.532 759.055C334.913 760.412 335.604 762.373 335.604 764.938V777H331.46V766.196C331.46 762.57 329.955 760.757 326.946 760.757C325.515 760.757 324.269 761.238 323.209 762.2C322.148 763.137 321.618 764.519 321.618 766.344ZM355.691 777H351.547V757.316H355.691V777ZM351.806 753.394C351.288 752.876 351.029 752.259 351.029 751.544C351.029 750.829 351.288 750.212 351.806 749.694C352.324 749.176 352.941 748.917 353.656 748.917C354.371 748.917 354.988 749.176 355.506 749.694C356.024 750.212 356.283 750.829 356.283 751.544C356.283 752.259 356.024 752.876 355.506 753.394C354.988 753.912 354.371 754.171 353.656 754.171C352.941 754.171 352.324 753.912 351.806 753.394ZM369.729 777.296C367.238 777.296 365.067 776.359 363.217 774.484C361.367 772.609 360.442 770.143 360.442 767.084C360.442 764.025 361.392 761.583 363.291 759.758C365.191 757.933 367.448 757.02 370.062 757.02C372.702 757.02 374.823 758.13 376.426 760.35V749.546H380.57V777H376.426V774.04C374.897 776.211 372.665 777.296 369.729 777.296ZM364.586 767.269C364.586 769.144 365.191 770.673 366.399 771.857C367.608 773.041 369.026 773.633 370.654 773.633C372.282 773.633 373.664 773.041 374.798 771.857C375.933 770.648 376.5 769.107 376.5 767.232C376.5 765.357 375.933 763.791 374.798 762.533C373.664 761.275 372.27 760.646 370.617 760.646C368.965 760.646 367.546 761.275 366.362 762.533C365.178 763.791 364.586 765.37 364.586 767.269ZM404.875 768.971H389.446C389.544 770.402 390.198 771.561 391.407 772.449C392.615 773.312 393.997 773.744 395.551 773.744C398.017 773.744 399.892 772.967 401.175 771.413L403.543 774.003C401.421 776.198 398.659 777.296 395.255 777.296C392.492 777.296 390.136 776.383 388.188 774.558C386.264 772.708 385.302 770.241 385.302 767.158C385.302 764.05 386.288 761.583 388.262 759.758C390.235 757.933 392.554 757.02 395.218 757.02C397.906 757.02 400.188 757.834 402.063 759.462C403.937 761.065 404.875 763.285 404.875 766.122V768.971ZM389.446 765.715H400.731C400.731 764.062 400.213 762.792 399.177 761.904C398.141 761.016 396.858 760.572 395.329 760.572C393.824 760.572 392.467 761.041 391.259 761.978C390.05 762.891 389.446 764.136 389.446 765.715ZM414.02 771.82C415.204 773.004 416.696 773.596 418.497 773.596C420.297 773.596 421.777 773.004 422.937 771.82C424.121 770.611 424.713 769.057 424.713 767.158C424.713 765.259 424.121 763.717 422.937 762.533C421.777 761.324 420.297 760.72 418.497 760.72C416.696 760.72 415.204 761.324 414.02 762.533C412.86 763.717 412.281 765.259 412.281 767.158C412.281 769.057 412.86 770.611 414.02 771.82ZM425.897 774.373C423.923 776.322 421.457 777.296 418.497 777.296C415.537 777.296 413.07 776.322 411.097 774.373C409.123 772.4 408.137 769.995 408.137 767.158C408.137 764.321 409.123 761.929 411.097 759.98C413.07 758.007 415.537 757.02 418.497 757.02C421.457 757.02 423.923 758.007 425.897 759.98C427.87 761.929 428.857 764.321 428.857 767.158C428.857 769.995 427.87 772.4 425.897 774.373ZM437.713 777H433.569V749.546H437.713V777ZM448.31 771.82C449.494 773.004 450.986 773.596 452.787 773.596C454.588 773.596 456.068 773.004 457.227 771.82C458.411 770.611 459.003 769.057 459.003 767.158C459.003 765.259 458.411 763.717 457.227 762.533C456.068 761.324 454.588 760.72 452.787 760.72C450.986 760.72 449.494 761.324 448.31 762.533C447.151 763.717 446.571 765.259 446.571 767.158C446.571 769.057 447.151 770.611 448.31 771.82ZM460.187 774.373C458.214 776.322 455.747 777.296 452.787 777.296C449.827 777.296 447.36 776.322 445.387 774.373C443.414 772.4 442.427 769.995 442.427 767.158C442.427 764.321 443.414 761.929 445.387 759.98C447.36 758.007 449.827 757.02 452.787 757.02C455.747 757.02 458.214 758.007 460.187 759.98C462.16 761.929 463.147 764.321 463.147 767.158C463.147 769.995 462.16 772.4 460.187 774.373ZM486.063 757.316V774.484C486.063 777.962 485.113 780.564 483.214 782.291C481.339 784.042 478.922 784.918 475.962 784.918C473.002 784.918 470.325 783.993 467.933 782.143L469.894 778.998C471.818 780.453 473.754 781.181 475.703 781.181C477.676 781.181 479.23 780.675 480.365 779.664C481.524 778.653 482.104 777.037 482.104 774.817V772.301C481.487 773.46 480.599 774.385 479.44 775.076C478.305 775.767 477.022 776.112 475.592 776.112C472.977 776.112 470.831 775.199 469.154 773.374C467.476 771.549 466.638 769.279 466.638 766.566C466.638 763.853 467.476 761.583 469.154 759.758C470.831 757.933 472.965 757.02 475.555 757.02C478.169 757.02 480.291 758.093 481.919 760.239V757.316H486.063ZM470.708 766.418C470.708 768.021 471.201 769.415 472.188 770.599C473.199 771.758 474.543 772.338 476.221 772.338C477.923 772.338 479.292 771.771 480.328 770.636C481.388 769.501 481.919 768.095 481.919 766.418C481.919 764.716 481.388 763.285 480.328 762.126C479.267 760.942 477.898 760.35 476.221 760.35C474.543 760.35 473.199 760.954 472.188 762.163C471.201 763.372 470.708 764.79 470.708 766.418ZM496.212 777H492.068V757.316H496.212V777ZM492.327 753.394C491.809 752.876 491.55 752.259 491.55 751.544C491.55 750.829 491.809 750.212 492.327 749.694C492.845 749.176 493.461 748.917 494.177 748.917C494.892 748.917 495.509 749.176 496.027 749.694C496.545 750.212 496.804 750.829 496.804 751.544C496.804 752.259 496.545 752.876 496.027 753.394C495.509 753.912 494.892 754.171 494.177 754.171C493.461 754.171 492.845 753.912 492.327 753.394ZM510.953 777.296C508.215 777.296 505.859 776.371 503.886 774.521C501.913 772.646 500.926 770.204 500.926 767.195C500.926 764.186 501.95 761.744 503.997 759.869C506.069 757.97 508.585 757.02 511.545 757.02C514.505 757.02 517.009 758.044 519.056 760.091L516.614 763.088C514.912 761.608 513.198 760.868 511.471 760.868C509.744 760.868 508.24 761.448 506.957 762.607C505.699 763.742 505.07 765.222 505.07 767.047C505.07 768.848 505.699 770.377 506.957 771.635C508.215 772.893 509.757 773.522 511.582 773.522C513.432 773.522 515.171 772.683 516.799 771.006L519.241 773.67C516.848 776.087 514.086 777.296 510.953 777.296ZM539.342 777H535.568V774.373C533.94 776.322 531.757 777.296 529.019 777.296C526.971 777.296 525.269 776.716 523.913 775.557C522.581 774.398 521.915 772.856 521.915 770.932C521.915 768.983 522.63 767.528 524.061 766.566C525.491 765.604 527.428 765.123 529.87 765.123H535.235V764.383C535.235 761.768 533.779 760.461 530.869 760.461C529.043 760.461 527.144 761.127 525.171 762.459L523.321 759.869C525.713 757.97 528.427 757.02 531.461 757.02C533.779 757.02 535.666 757.612 537.122 758.796C538.602 759.955 539.342 761.793 539.342 764.309V777ZM535.198 769.674V768.009H530.536C527.551 768.009 526.059 768.946 526.059 770.821C526.059 771.783 526.429 772.523 527.169 773.041C527.909 773.534 528.932 773.781 530.24 773.781C531.572 773.781 532.731 773.411 533.718 772.671C534.704 771.931 535.198 770.932 535.198 769.674ZM549.255 777H545.111V749.546H549.255V777ZM575.962 757.02C578.602 757.02 580.859 757.933 582.733 759.758C584.608 761.583 585.545 764.013 585.545 767.047C585.545 770.081 584.608 772.548 582.733 774.447C580.883 776.346 578.713 777.296 576.221 777.296C573.754 777.296 571.534 776.211 569.561 774.04V784.178H565.417V757.316H569.561V760.757C571.189 758.266 573.323 757.02 575.962 757.02ZM569.487 767.195C569.487 769.07 570.054 770.611 571.189 771.82C572.324 773.004 573.705 773.596 575.333 773.596C576.961 773.596 578.38 773.004 579.588 771.82C580.797 770.636 581.401 769.107 581.401 767.232C581.401 765.333 580.809 763.766 579.625 762.533C578.441 761.275 577.023 760.646 575.37 760.646C573.718 760.646 572.324 761.275 571.189 762.533C570.054 763.766 569.487 765.32 569.487 767.195ZM604.041 767.972V757.316H608.185V777H604.041V773.411C603.375 774.62 602.45 775.569 601.266 776.26C600.106 776.951 598.848 777.296 597.492 777.296C595.272 777.296 593.471 776.618 592.09 775.261C590.733 773.904 590.055 771.943 590.055 769.378V757.316H594.199V768.12C594.199 771.746 595.703 773.559 598.713 773.559C600.143 773.559 601.389 773.09 602.45 772.153C603.51 771.191 604.041 769.797 604.041 767.972ZM624.519 761.201C622.472 761.201 620.93 761.867 619.894 763.199C618.858 764.531 618.34 766.319 618.34 768.564V777H614.196V757.316H618.34V761.275C619.006 760.042 619.907 759.03 621.041 758.241C622.201 757.452 623.422 757.045 624.704 757.02L624.741 761.201C624.667 761.201 624.593 761.201 624.519 761.201ZM642.926 771.117C642.926 772.992 642.247 774.496 640.891 775.631C639.534 776.741 637.795 777.296 635.674 777.296C634.243 777.296 632.751 777.037 631.197 776.519C629.667 776.001 628.311 775.273 627.127 774.336L629.125 771.117C631.419 772.844 633.639 773.707 635.785 773.707C636.722 773.707 637.462 773.497 638.005 773.078C638.547 772.634 638.819 772.079 638.819 771.413C638.819 770.426 637.511 769.538 634.897 768.749C634.699 768.675 634.551 768.626 634.453 768.601C630.358 767.491 628.311 765.641 628.311 763.051C628.311 761.226 629.014 759.77 630.42 758.685C631.85 757.575 633.7 757.02 635.97 757.02C638.239 757.02 640.385 757.686 642.408 759.018L640.854 762.089C639.25 761.028 637.511 760.498 635.637 760.498C634.65 760.498 633.848 760.683 633.232 761.053C632.615 761.398 632.307 761.929 632.307 762.644C632.307 763.285 632.627 763.754 633.269 764.05C633.713 764.272 634.329 764.482 635.119 764.679C635.933 764.876 636.648 765.074 637.265 765.271C637.881 765.468 638.473 765.69 639.041 765.937C639.633 766.184 640.262 766.529 640.928 766.973C642.26 767.861 642.926 769.242 642.926 771.117ZM661.383 767.972V757.316H665.527V777H661.383V773.411C660.717 774.62 659.792 775.569 658.608 776.26C657.449 776.951 656.191 777.296 654.834 777.296C652.614 777.296 650.814 776.618 649.432 775.261C648.076 773.904 647.397 771.943 647.397 769.378V757.316H651.541V768.12C651.541 771.746 653.046 773.559 656.055 773.559C657.486 773.559 658.732 773.09 659.792 772.153C660.853 771.191 661.383 769.797 661.383 767.972ZM675.683 777H671.539V757.316H675.683V777ZM671.798 753.394C671.28 752.876 671.021 752.259 671.021 751.544C671.021 750.829 671.28 750.212 671.798 749.694C672.316 749.176 672.933 748.917 673.648 748.917C674.364 748.917 674.98 749.176 675.498 749.694C676.016 750.212 676.275 750.829 676.275 751.544C676.275 752.259 676.016 752.876 675.498 753.394C674.98 753.912 674.364 754.171 673.648 754.171C672.933 754.171 672.316 753.912 671.798 753.394ZM686.799 760.646V770.636C686.799 771.573 687.045 772.326 687.539 772.893C688.032 773.436 688.723 773.707 689.611 773.707C690.499 773.707 691.35 773.275 692.164 772.412L693.866 775.335C692.41 776.642 690.795 777.296 689.019 777.296C687.267 777.296 685.763 776.692 684.505 775.483C683.271 774.25 682.655 772.597 682.655 770.525V760.646H680.176V757.316H682.655V751.137H686.799V757.316H691.979V760.646H686.799Z" fill="black"/>
<path d="M977.637 732V706.137H982.003V727.856H993.806V732H977.637ZM1002.26 726.82C1003.45 728.004 1004.94 728.596 1006.74 728.596C1008.54 728.596 1010.02 728.004 1011.18 726.82C1012.37 725.611 1012.96 724.057 1012.96 722.158C1012.96 720.259 1012.37 718.717 1011.18 717.533C1010.02 716.324 1008.54 715.72 1006.74 715.72C1004.94 715.72 1003.45 716.324 1002.26 717.533C1001.11 718.717 1000.53 720.259 1000.53 722.158C1000.53 724.057 1001.11 725.611 1002.26 726.82ZM1014.14 729.373C1012.17 731.322 1009.7 732.296 1006.74 732.296C1003.78 732.296 1001.31 731.322 999.341 729.373C997.368 727.4 996.381 724.995 996.381 722.158C996.381 719.321 997.368 716.929 999.341 714.98C1001.31 713.007 1003.78 712.02 1006.74 712.02C1009.7 712.02 1012.17 713.007 1014.14 714.98C1016.11 716.929 1017.1 719.321 1017.1 722.158C1017.1 724.995 1016.11 727.4 1014.14 729.373ZM1035.84 726.117C1035.84 727.992 1035.16 729.496 1033.8 730.631C1032.44 731.741 1030.71 732.296 1028.58 732.296C1027.15 732.296 1025.66 732.037 1024.11 731.519C1022.58 731.001 1021.22 730.273 1020.04 729.336L1022.04 726.117C1024.33 727.844 1026.55 728.707 1028.7 728.707C1029.63 728.707 1030.37 728.497 1030.92 728.078C1031.46 727.634 1031.73 727.079 1031.73 726.413C1031.73 725.426 1030.42 724.538 1027.81 723.749C1027.61 723.675 1027.46 723.626 1027.36 723.601C1023.27 722.491 1021.22 720.641 1021.22 718.051C1021.22 716.226 1021.92 714.77 1023.33 713.685C1024.76 712.575 1026.61 712.02 1028.88 712.02C1031.15 712.02 1033.3 712.686 1035.32 714.018L1033.76 717.089C1032.16 716.028 1030.42 715.498 1028.55 715.498C1027.56 715.498 1026.76 715.683 1026.14 716.053C1025.53 716.398 1025.22 716.929 1025.22 717.644C1025.22 718.285 1025.54 718.754 1026.18 719.05C1026.62 719.272 1027.24 719.482 1028.03 719.679C1028.84 719.876 1029.56 720.074 1030.18 720.271C1030.79 720.468 1031.38 720.69 1031.95 720.937C1032.54 721.184 1033.17 721.529 1033.84 721.973C1035.17 722.861 1035.84 724.242 1035.84 726.117ZM1054.55 726.117C1054.55 727.992 1053.87 729.496 1052.52 730.631C1051.16 731.741 1049.42 732.296 1047.3 732.296C1045.87 732.296 1044.38 732.037 1042.82 731.519C1041.29 731.001 1039.94 730.273 1038.75 729.336L1040.75 726.117C1043.05 727.844 1045.27 728.707 1047.41 728.707C1048.35 728.707 1049.09 728.497 1049.63 728.078C1050.17 727.634 1050.45 727.079 1050.45 726.413C1050.45 725.426 1049.14 724.538 1046.52 723.749C1046.33 723.675 1046.18 723.626 1046.08 723.601C1041.99 722.491 1039.94 720.641 1039.94 718.051C1039.94 716.226 1040.64 714.77 1042.05 713.685C1043.48 712.575 1045.33 712.02 1047.6 712.02C1049.87 712.02 1052.01 712.686 1054.03 714.018L1052.48 717.089C1050.88 716.028 1049.14 715.498 1047.26 715.498C1046.28 715.498 1045.48 715.683 1044.86 716.053C1044.24 716.398 1043.93 716.929 1043.93 717.644C1043.93 718.285 1044.25 718.754 1044.9 719.05C1045.34 719.272 1045.96 719.482 1046.75 719.679C1047.56 719.876 1048.28 720.074 1048.89 720.271C1049.51 720.468 1050.1 720.69 1050.67 720.937C1051.26 721.184 1051.89 721.529 1052.55 721.973C1053.89 722.861 1054.55 724.242 1054.55 726.117ZM1077.56 723.971H1062.13C1062.23 725.402 1062.89 726.561 1064.09 727.449C1065.3 728.312 1066.68 728.744 1068.24 728.744C1070.7 728.744 1072.58 727.967 1073.86 726.413L1076.23 729.003C1074.11 731.198 1071.35 732.296 1067.94 732.296C1065.18 732.296 1062.82 731.383 1060.87 729.558C1058.95 727.708 1057.99 725.241 1057.99 722.158C1057.99 719.05 1058.98 716.583 1060.95 714.758C1062.92 712.933 1065.24 712.02 1067.9 712.02C1070.59 712.02 1072.88 712.834 1074.75 714.462C1076.62 716.065 1077.56 718.285 1077.56 721.122V723.971ZM1062.13 720.715H1073.42C1073.42 719.062 1072.9 717.792 1071.86 716.904C1070.83 716.016 1069.55 715.572 1068.02 715.572C1066.51 715.572 1065.15 716.041 1063.95 716.978C1062.74 717.891 1062.13 719.136 1062.13 720.715ZM1096.14 726.117C1096.14 727.992 1095.46 729.496 1094.11 730.631C1092.75 731.741 1091.01 732.296 1088.89 732.296C1087.46 732.296 1085.97 732.037 1084.41 731.519C1082.88 731.001 1081.53 730.273 1080.34 729.336L1082.34 726.117C1084.63 727.844 1086.85 728.707 1089 728.707C1089.94 728.707 1090.68 728.497 1091.22 728.078C1091.76 727.634 1092.03 727.079 1092.03 726.413C1092.03 725.426 1090.73 724.538 1088.11 723.749C1087.92 723.675 1087.77 723.626 1087.67 723.601C1083.57 722.491 1081.53 720.641 1081.53 718.051C1081.53 716.226 1082.23 714.77 1083.64 713.685C1085.07 712.575 1086.92 712.02 1089.19 712.02C1091.46 712.02 1093.6 712.686 1095.62 714.018L1094.07 717.089C1092.47 716.028 1090.73 715.498 1088.85 715.498C1087.87 715.498 1087.06 715.683 1086.45 716.053C1085.83 716.398 1085.52 716.929 1085.52 717.644C1085.52 718.285 1085.84 718.754 1086.48 719.05C1086.93 719.272 1087.55 719.482 1088.33 719.679C1089.15 719.876 1089.86 720.074 1090.48 720.271C1091.1 720.468 1091.69 720.69 1092.26 720.937C1092.85 721.184 1093.48 721.529 1094.14 721.973C1095.48 722.861 1096.14 724.242 1096.14 726.117ZM1116.09 710.688V712.316H1121.27V715.646H1116.09V732H1111.95V715.646H1109.47V712.316H1111.95V710.799C1111.95 708.727 1112.57 707.087 1113.8 705.878C1115.06 704.645 1116.56 704.028 1118.31 704.028C1120.09 704.028 1121.71 704.682 1123.16 705.989L1121.46 708.912C1120.65 708.049 1119.79 707.617 1118.91 707.617C1118.02 707.617 1117.33 707.901 1116.83 708.468C1116.34 709.011 1116.09 709.751 1116.09 710.688ZM1135.58 716.201C1133.54 716.201 1132 716.867 1130.96 718.199C1129.92 719.531 1129.41 721.319 1129.41 723.564V732H1125.26V712.316H1129.41V716.275C1130.07 715.042 1130.97 714.03 1132.11 713.241C1133.27 712.452 1134.49 712.045 1135.77 712.02L1135.81 716.201C1135.73 716.201 1135.66 716.201 1135.58 716.201ZM1144.19 726.82C1145.38 728.004 1146.87 728.596 1148.67 728.596C1150.47 728.596 1151.95 728.004 1153.11 726.82C1154.3 725.611 1154.89 724.057 1154.89 722.158C1154.89 720.259 1154.3 718.717 1153.11 717.533C1151.95 716.324 1150.47 715.72 1148.67 715.72C1146.87 715.72 1145.38 716.324 1144.19 717.533C1143.03 718.717 1142.46 720.259 1142.46 722.158C1142.46 724.057 1143.03 725.611 1144.19 726.82ZM1156.07 729.373C1154.1 731.322 1151.63 732.296 1148.67 732.296C1145.71 732.296 1143.24 731.322 1141.27 729.373C1139.3 727.4 1138.31 724.995 1138.31 722.158C1138.31 719.321 1139.3 716.929 1141.27 714.98C1143.24 713.007 1145.71 712.02 1148.67 712.02C1151.63 712.02 1154.1 713.007 1156.07 714.98C1158.04 716.929 1159.03 719.321 1159.03 722.158C1159.03 724.995 1158.04 727.4 1156.07 729.373ZM1167.89 721.344V732H1163.74V712.316H1167.89V715.905C1168.48 714.696 1169.37 713.747 1170.55 713.056C1171.76 712.365 1173.05 712.02 1174.44 712.02C1177.54 712.02 1179.65 713.303 1180.76 715.868C1182.71 713.303 1185.14 712.02 1188.05 712.02C1190.27 712.02 1192.06 712.698 1193.42 714.055C1194.8 715.412 1195.49 717.373 1195.49 719.938V732H1191.34V721.196C1191.34 717.57 1189.84 715.757 1186.83 715.757C1185.42 715.757 1184.19 716.213 1183.13 717.126C1182.09 718.014 1181.55 719.321 1181.5 721.048V732H1177.36V721.196C1177.36 719.321 1177.03 717.952 1176.36 717.089C1175.69 716.201 1174.65 715.757 1173.21 715.757C1171.78 715.757 1170.54 716.238 1169.48 717.2C1168.42 718.137 1167.89 719.519 1167.89 721.344ZM1215.55 732H1211.4V704.546H1215.55V732ZM1237.5 732H1233.73V729.373C1232.1 731.322 1229.92 732.296 1227.18 732.296C1225.13 732.296 1223.43 731.716 1222.07 730.557C1220.74 729.398 1220.08 727.856 1220.08 725.932C1220.08 723.983 1220.79 722.528 1222.22 721.566C1223.65 720.604 1225.59 720.123 1228.03 720.123H1233.4V719.383C1233.4 716.768 1231.94 715.461 1229.03 715.461C1227.2 715.461 1225.3 716.127 1223.33 717.459L1221.48 714.869C1223.87 712.97 1226.59 712.02 1229.62 712.02C1231.94 712.02 1233.83 712.612 1235.28 713.796C1236.76 714.955 1237.5 716.793 1237.5 719.309V732ZM1233.36 724.674V723.009H1228.7C1225.71 723.009 1224.22 723.946 1224.22 725.821C1224.22 726.783 1224.59 727.523 1225.33 728.041C1226.07 728.534 1227.09 728.781 1228.4 728.781C1229.73 728.781 1230.89 728.411 1231.88 727.671C1232.87 726.931 1233.36 725.932 1233.36 724.674ZM1252 732.296C1249.27 732.296 1246.91 731.371 1244.94 729.521C1242.96 727.646 1241.98 725.204 1241.98 722.195C1241.98 719.186 1243 716.744 1245.05 714.869C1247.12 712.97 1249.64 712.02 1252.6 712.02C1255.56 712.02 1258.06 713.044 1260.11 715.091L1257.66 718.088C1255.96 716.608 1254.25 715.868 1252.52 715.868C1250.79 715.868 1249.29 716.448 1248.01 717.607C1246.75 718.742 1246.12 720.222 1246.12 722.047C1246.12 723.848 1246.75 725.377 1248.01 726.635C1249.27 727.893 1250.81 728.522 1252.63 728.522C1254.48 728.522 1256.22 727.683 1257.85 726.006L1260.29 728.67C1257.9 731.087 1255.14 732.296 1252 732.296ZM1268.73 732H1264.59V704.546H1268.73V720.678L1276.73 712.316H1282.05L1274.58 720.123L1282.61 732H1277.58L1271.73 723.379L1268.73 726.413V732ZM1300.83 726.82C1302.01 728.004 1303.51 728.596 1305.31 728.596C1307.11 728.596 1308.59 728.004 1309.75 726.82C1310.93 725.611 1311.52 724.057 1311.52 722.158C1311.52 720.259 1310.93 718.717 1309.75 717.533C1308.59 716.324 1307.11 715.72 1305.31 715.72C1303.51 715.72 1302.01 716.324 1300.83 717.533C1299.67 718.717 1299.09 720.259 1299.09 722.158C1299.09 724.057 1299.67 725.611 1300.83 726.82ZM1312.71 729.373C1310.73 731.322 1308.27 732.296 1305.31 732.296C1302.35 732.296 1299.88 731.322 1297.91 729.373C1295.93 727.4 1294.95 724.995 1294.95 722.158C1294.95 719.321 1295.93 716.929 1297.91 714.98C1299.88 713.007 1302.35 712.02 1305.31 712.02C1308.27 712.02 1310.73 713.007 1312.71 714.98C1314.68 716.929 1315.67 719.321 1315.67 722.158C1315.67 724.995 1314.68 727.4 1312.71 729.373ZM1325.2 710.688V712.316H1330.38V715.646H1325.2V732H1321.05V715.646H1318.57V712.316H1321.05V710.799C1321.05 708.727 1321.67 707.087 1322.9 705.878C1324.16 704.645 1325.66 704.028 1327.42 704.028C1329.19 704.028 1330.81 704.682 1332.26 705.989L1330.56 708.912C1329.75 708.049 1328.9 707.617 1328.01 707.617C1327.12 707.617 1326.43 707.901 1325.94 708.468C1325.44 709.011 1325.2 709.751 1325.2 710.688ZM1362.83 723.971H1347.4C1347.5 725.402 1348.15 726.561 1349.36 727.449C1350.57 728.312 1351.95 728.744 1353.51 728.744C1355.97 728.744 1357.85 727.967 1359.13 726.413L1361.5 729.003C1359.38 731.198 1356.61 732.296 1353.21 732.296C1350.45 732.296 1348.09 731.383 1346.14 729.558C1344.22 727.708 1343.26 725.241 1343.26 722.158C1343.26 719.05 1344.24 716.583 1346.22 714.758C1348.19 712.933 1350.51 712.02 1353.17 712.02C1355.86 712.02 1358.14 712.834 1360.02 714.462C1361.89 716.065 1362.83 718.285 1362.83 721.122V723.971ZM1347.4 720.715H1358.69C1358.69 719.062 1358.17 717.792 1357.13 716.904C1356.1 716.016 1354.81 715.572 1353.28 715.572C1351.78 715.572 1350.42 716.041 1349.21 716.978C1348.01 717.891 1347.4 719.136 1347.4 720.715ZM1370.13 712.316L1374.35 718.791L1378.72 712.316H1383.64L1376.76 721.936L1383.94 732H1378.83L1374.13 725.451L1369.54 732H1364.7L1371.69 721.973L1365.07 712.316H1370.13ZM1398.17 712.02C1400.81 712.02 1403.06 712.933 1404.94 714.758C1406.81 716.583 1407.75 719.013 1407.75 722.047C1407.75 725.081 1406.81 727.548 1404.94 729.447C1403.09 731.346 1400.92 732.296 1398.43 732.296C1395.96 732.296 1393.74 731.211 1391.77 729.04V739.178H1387.62V712.316H1391.77V715.757C1393.39 713.266 1395.53 712.02 1398.17 712.02ZM1391.69 722.195C1391.69 724.07 1392.26 725.611 1393.39 726.82C1394.53 728.004 1395.91 728.596 1397.54 728.596C1399.17 728.596 1400.58 728.004 1401.79 726.82C1403 725.636 1403.61 724.107 1403.61 722.232C1403.61 720.333 1403.01 718.766 1401.83 717.533C1400.65 716.275 1399.23 715.646 1397.57 715.646C1395.92 715.646 1394.53 716.275 1393.39 717.533C1392.26 718.766 1391.69 720.32 1391.69 722.195ZM1430.8 723.971H1415.37C1415.47 725.402 1416.12 726.561 1417.33 727.449C1418.54 728.312 1419.92 728.744 1421.47 728.744C1423.94 728.744 1425.81 727.967 1427.1 726.413L1429.46 729.003C1427.34 731.198 1424.58 732.296 1421.18 732.296C1418.41 732.296 1416.06 731.383 1414.11 729.558C1412.19 727.708 1411.22 725.241 1411.22 722.158C1411.22 719.05 1412.21 716.583 1414.18 714.758C1416.16 712.933 1418.48 712.02 1421.14 712.02C1423.83 712.02 1426.11 712.834 1427.98 714.462C1429.86 716.065 1430.8 718.285 1430.8 721.122V723.971ZM1415.37 720.715H1426.65C1426.65 719.062 1426.13 717.792 1425.1 716.904C1424.06 716.016 1422.78 715.572 1421.25 715.572C1419.75 715.572 1418.39 716.041 1417.18 716.978C1415.97 717.891 1415.37 719.136 1415.37 720.715ZM1444.09 732.296C1441.35 732.296 1438.99 731.371 1437.02 729.521C1435.04 727.646 1434.06 725.204 1434.06 722.195C1434.06 719.186 1435.08 716.744 1437.13 714.869C1439.2 712.97 1441.72 712.02 1444.68 712.02C1447.64 712.02 1450.14 713.044 1452.19 715.091L1449.75 718.088C1448.04 716.608 1446.33 715.868 1444.6 715.868C1442.88 715.868 1441.37 716.448 1440.09 717.607C1438.83 718.742 1438.2 720.222 1438.2 722.047C1438.2 723.848 1438.83 725.377 1440.09 726.635C1441.35 727.893 1442.89 728.522 1444.71 728.522C1446.56 728.522 1448.3 727.683 1449.93 726.006L1452.37 728.67C1449.98 731.087 1447.22 732.296 1444.09 732.296ZM1461.78 715.646V725.636C1461.78 726.573 1462.02 727.326 1462.52 727.893C1463.01 728.436 1463.7 728.707 1464.59 728.707C1465.48 728.707 1466.33 728.275 1467.14 727.412L1468.84 730.335C1467.39 731.642 1465.77 732.296 1464 732.296C1462.25 732.296 1460.74 731.692 1459.48 730.483C1458.25 729.25 1457.63 727.597 1457.63 725.525V715.646H1455.15V712.316H1457.63V706.137H1461.78V712.316H1466.96V715.646H1461.78ZM1490.45 723.971H1475.02C1475.12 725.402 1475.77 726.561 1476.98 727.449C1478.19 728.312 1479.57 728.744 1481.13 728.744C1483.59 728.744 1485.47 727.967 1486.75 726.413L1489.12 729.003C1487 731.198 1484.24 732.296 1480.83 732.296C1478.07 732.296 1475.71 731.383 1473.76 729.558C1471.84 727.708 1470.88 725.241 1470.88 722.158C1470.88 719.05 1471.87 716.583 1473.84 714.758C1475.81 712.933 1478.13 712.02 1480.79 712.02C1483.48 712.02 1485.76 712.834 1487.64 714.462C1489.51 716.065 1490.45 718.285 1490.45 721.122V723.971ZM1475.02 720.715H1486.31C1486.31 719.062 1485.79 717.792 1484.75 716.904C1483.72 716.016 1482.43 715.572 1480.91 715.572C1479.4 715.572 1478.04 716.041 1476.84 716.978C1475.63 717.891 1475.02 719.136 1475.02 720.715ZM1503.04 732.296C1500.55 732.296 1498.38 731.359 1496.53 729.484C1494.68 727.609 1493.75 725.143 1493.75 722.084C1493.75 719.025 1494.7 716.583 1496.6 714.758C1498.5 712.933 1500.76 712.02 1503.37 712.02C1506.01 712.02 1508.13 713.13 1509.73 715.35V704.546H1513.88V732H1509.73V729.04C1508.21 731.211 1505.97 732.296 1503.04 732.296ZM1497.89 722.269C1497.89 724.144 1498.5 725.673 1499.71 726.857C1500.92 728.041 1502.33 728.633 1503.96 728.633C1505.59 728.633 1506.97 728.041 1508.11 726.857C1509.24 725.648 1509.81 724.107 1509.81 722.232C1509.81 720.357 1509.24 718.791 1508.11 717.533C1506.97 716.275 1505.58 715.646 1503.93 715.646C1502.27 715.646 1500.85 716.275 1499.67 717.533C1498.49 718.791 1497.89 720.37 1497.89 722.269ZM1544.04 726.117C1544.04 727.992 1543.37 729.496 1542.01 730.631C1540.65 731.741 1538.91 732.296 1536.79 732.296C1535.36 732.296 1533.87 732.037 1532.32 731.519C1530.79 731.001 1529.43 730.273 1528.25 729.336L1530.24 726.117C1532.54 727.844 1534.76 728.707 1536.9 728.707C1537.84 728.707 1538.58 728.497 1539.12 728.078C1539.67 727.634 1539.94 727.079 1539.94 726.413C1539.94 725.426 1538.63 724.538 1536.02 723.749C1535.82 723.675 1535.67 723.626 1535.57 723.601C1531.48 722.491 1529.43 720.641 1529.43 718.051C1529.43 716.226 1530.13 714.77 1531.54 713.685C1532.97 712.575 1534.82 712.02 1537.09 712.02C1539.36 712.02 1541.5 712.686 1543.53 714.018L1541.97 717.089C1540.37 716.028 1538.63 715.498 1536.76 715.498C1535.77 715.498 1534.97 715.683 1534.35 716.053C1533.73 716.398 1533.43 716.929 1533.43 717.644C1533.43 718.285 1533.75 718.754 1534.39 719.05C1534.83 719.272 1535.45 719.482 1536.24 719.679C1537.05 719.876 1537.77 720.074 1538.38 720.271C1539 720.468 1539.59 720.69 1540.16 720.937C1540.75 721.184 1541.38 721.529 1542.05 721.973C1543.38 722.861 1544.04 724.242 1544.04 726.117ZM1562.5 722.972V712.316H1566.65V732H1562.5V728.411C1561.84 729.62 1560.91 730.569 1559.73 731.26C1558.57 731.951 1557.31 732.296 1555.95 732.296C1553.73 732.296 1551.93 731.618 1550.55 730.261C1549.19 728.904 1548.52 726.943 1548.52 724.378V712.316H1552.66V723.12C1552.66 726.746 1554.16 728.559 1557.17 728.559C1558.6 728.559 1559.85 728.09 1560.91 727.153C1561.97 726.191 1562.5 724.797 1562.5 722.972ZM1583.2 712.02C1585.84 712.02 1588.1 712.933 1589.97 714.758C1591.85 716.583 1592.79 719.013 1592.79 722.047C1592.79 725.081 1591.85 727.548 1589.97 729.447C1588.12 731.346 1585.95 732.296 1583.46 732.296C1581 732.296 1578.78 731.211 1576.8 729.04V739.178H1572.66V712.316H1576.8V715.757C1578.43 713.266 1580.56 712.02 1583.2 712.02ZM1576.73 722.195C1576.73 724.07 1577.3 725.611 1578.43 726.82C1579.56 728.004 1580.95 728.596 1582.57 728.596C1584.2 728.596 1585.62 728.004 1586.83 726.82C1588.04 725.636 1588.64 724.107 1588.64 722.232C1588.64 720.333 1588.05 718.766 1586.87 717.533C1585.68 716.275 1584.26 715.646 1582.61 715.646C1580.96 715.646 1579.56 716.275 1578.43 717.533C1577.3 718.766 1576.73 720.32 1576.73 722.195ZM1608.06 712.02C1610.7 712.02 1612.96 712.933 1614.83 714.758C1616.71 716.583 1617.65 719.013 1617.65 722.047C1617.65 725.081 1616.71 727.548 1614.83 729.447C1612.98 731.346 1610.81 732.296 1608.32 732.296C1605.85 732.296 1603.63 731.211 1601.66 729.04V739.178H1597.52V712.316H1601.66V715.757C1603.29 713.266 1605.42 712.02 1608.06 712.02ZM1601.59 722.195C1601.59 724.07 1602.15 725.611 1603.29 726.82C1604.42 728.004 1605.81 728.596 1607.43 728.596C1609.06 728.596 1610.48 728.004 1611.69 726.82C1612.9 725.636 1613.5 724.107 1613.5 722.232C1613.5 720.333 1612.91 718.766 1611.73 717.533C1610.54 716.275 1609.12 715.646 1607.47 715.646C1605.82 715.646 1604.42 716.275 1603.29 717.533C1602.15 718.766 1601.59 720.32 1601.59 722.195ZM1626.96 726.82C1628.15 728.004 1629.64 728.596 1631.44 728.596C1633.24 728.596 1634.72 728.004 1635.88 726.82C1637.07 725.611 1637.66 724.057 1637.66 722.158C1637.66 720.259 1637.07 718.717 1635.88 717.533C1634.72 716.324 1633.24 715.72 1631.44 715.72C1629.64 715.72 1628.15 716.324 1626.96 717.533C1625.81 718.717 1625.23 720.259 1625.23 722.158C1625.23 724.057 1625.81 725.611 1626.96 726.82ZM1638.84 729.373C1636.87 731.322 1634.4 732.296 1631.44 732.296C1628.48 732.296 1626.01 731.322 1624.04 729.373C1622.07 727.4 1621.08 724.995 1621.08 722.158C1621.08 719.321 1622.07 716.929 1624.04 714.98C1626.01 713.007 1628.48 712.02 1631.44 712.02C1634.4 712.02 1636.87 713.007 1638.84 714.98C1640.81 716.929 1641.8 719.321 1641.8 722.158C1641.8 724.995 1640.81 727.4 1638.84 729.373ZM1656.84 716.201C1654.79 716.201 1653.25 716.867 1652.21 718.199C1651.18 719.531 1650.66 721.319 1650.66 723.564V732H1646.51V712.316H1650.66V716.275C1651.32 715.042 1652.22 714.03 1653.36 713.241C1654.52 712.452 1655.74 712.045 1657.02 712.02L1657.06 716.201C1656.98 716.201 1656.91 716.201 1656.84 716.201ZM1666.33 715.646V725.636C1666.33 726.573 1666.57 727.326 1667.07 727.893C1667.56 728.436 1668.25 728.707 1669.14 728.707C1670.03 728.707 1670.88 728.275 1671.69 727.412L1673.39 730.335C1671.94 731.642 1670.32 732.296 1668.55 732.296C1666.79 732.296 1665.29 731.692 1664.03 730.483C1662.8 729.25 1662.18 727.597 1662.18 725.525V715.646H1659.7V712.316H1662.18V706.137H1666.33V712.316H1671.51V715.646H1666.33ZM1676.13 729.595C1676.13 728.806 1676.4 728.152 1676.94 727.634C1677.49 727.091 1678.13 726.82 1678.87 726.82C1679.61 726.82 1680.25 727.091 1680.79 727.634C1681.36 728.152 1681.64 728.781 1681.64 729.521C1681.64 730.261 1681.31 731.161 1680.64 732.222L1678.42 735.885H1676.28L1677.65 732.037C1676.63 731.568 1676.13 730.754 1676.13 729.595ZM981.189 777H977.045V757.316H981.189V777ZM977.304 753.394C976.786 752.876 976.527 752.259 976.527 751.544C976.527 750.829 976.786 750.212 977.304 749.694C977.822 749.176 978.438 748.917 979.154 748.917C979.869 748.917 980.486 749.176 981.004 749.694C981.522 750.212 981.781 750.829 981.781 751.544C981.781 752.259 981.522 752.876 981.004 753.394C980.486 753.912 979.869 754.171 979.154 754.171C978.438 754.171 977.822 753.912 977.304 753.394ZM995.227 777.296C992.736 777.296 990.565 776.359 988.715 774.484C986.865 772.609 985.94 770.143 985.94 767.084C985.94 764.025 986.89 761.583 988.789 759.758C990.688 757.933 992.945 757.02 995.56 757.02C998.199 757.02 1000.32 758.13 1001.92 760.35V749.546H1006.07V777H1001.92V774.04C1000.39 776.211 998.162 777.296 995.227 777.296ZM990.084 767.269C990.084 769.144 990.688 770.673 991.897 771.857C993.106 773.041 994.524 773.633 996.152 773.633C997.78 773.633 999.161 773.041 1000.3 771.857C1001.43 770.648 1002 769.107 1002 767.232C1002 765.357 1001.43 763.791 1000.3 762.533C999.161 761.275 997.768 760.646 996.115 760.646C994.462 760.646 993.044 761.275 991.86 762.533C990.676 763.791 990.084 765.37 990.084 767.269ZM1030.37 768.971H1014.94C1015.04 770.402 1015.7 771.561 1016.9 772.449C1018.11 773.312 1019.49 773.744 1021.05 773.744C1023.51 773.744 1025.39 772.967 1026.67 771.413L1029.04 774.003C1026.92 776.198 1024.16 777.296 1020.75 777.296C1017.99 777.296 1015.63 776.383 1013.69 774.558C1011.76 772.708 1010.8 770.241 1010.8 767.158C1010.8 764.05 1011.79 761.583 1013.76 759.758C1015.73 757.933 1018.05 757.02 1020.72 757.02C1023.4 757.02 1025.69 757.834 1027.56 759.462C1029.43 761.065 1030.37 763.285 1030.37 766.122V768.971ZM1014.94 765.715H1026.23C1026.23 764.062 1025.71 762.792 1024.67 761.904C1023.64 761.016 1022.36 760.572 1020.83 760.572C1019.32 760.572 1017.96 761.041 1016.76 761.978C1015.55 762.891 1014.94 764.136 1014.94 765.715ZM1039.07 766.344V777H1034.93V757.316H1039.07V760.905C1039.74 759.696 1040.65 758.747 1041.81 758.056C1043 757.365 1044.27 757.02 1045.62 757.02C1047.84 757.02 1049.63 757.698 1050.99 759.055C1052.37 760.412 1053.06 762.373 1053.06 764.938V777H1048.92V766.196C1048.92 762.57 1047.41 760.757 1044.4 760.757C1042.97 760.757 1041.73 761.238 1040.66 762.2C1039.6 763.137 1039.07 764.519 1039.07 766.344ZM1063.7 760.646V770.636C1063.7 771.573 1063.95 772.326 1064.44 772.893C1064.94 773.436 1065.63 773.707 1066.51 773.707C1067.4 773.707 1068.25 773.275 1069.07 772.412L1070.77 775.335C1069.31 776.642 1067.7 777.296 1065.92 777.296C1064.17 777.296 1062.67 776.692 1061.41 775.483C1060.18 774.25 1059.56 772.597 1059.56 770.525V760.646H1057.08V757.316H1059.56V751.137H1063.7V757.316H1068.88V760.646H1063.7ZM1078.21 777H1074.06V757.316H1078.21V777ZM1074.32 753.394C1073.8 752.876 1073.54 752.259 1073.54 751.544C1073.54 750.829 1073.8 750.212 1074.32 749.694C1074.84 749.176 1075.45 748.917 1076.17 748.917C1076.89 748.917 1077.5 749.176 1078.02 749.694C1078.54 750.212 1078.8 750.829 1078.8 751.544C1078.8 752.259 1078.54 752.876 1078.02 753.394C1077.5 753.912 1076.89 754.171 1076.17 754.171C1075.45 754.171 1074.84 753.912 1074.32 753.394ZM1089.32 760.646V770.636C1089.32 771.573 1089.57 772.326 1090.06 772.893C1090.55 773.436 1091.24 773.707 1092.13 773.707C1093.02 773.707 1093.87 773.275 1094.69 772.412L1096.39 775.335C1094.93 776.642 1093.32 777.296 1091.54 777.296C1089.79 777.296 1088.28 776.692 1087.03 775.483C1085.79 774.25 1085.18 772.597 1085.18 770.525V760.646H1082.7V757.316H1085.18V751.137H1089.32V757.316H1094.5V760.646H1089.32ZM1102.16 784.844C1100.36 784.844 1098.73 784.19 1097.27 782.883L1099.16 779.516C1100.02 780.33 1100.91 780.737 1101.83 780.737C1102.76 780.737 1103.52 780.404 1104.08 779.738C1104.67 779.072 1104.97 778.344 1104.97 777.555C1104.97 777.21 1102.32 770.463 1097.02 757.316H1101.46L1107.34 771.82L1113.22 757.316H1117.66L1108.12 780.7C1107.55 781.983 1106.73 782.994 1105.67 783.734C1104.61 784.474 1103.44 784.844 1102.16 784.844ZM1120.37 774.595C1120.37 773.806 1120.64 773.152 1121.18 772.634C1121.73 772.091 1122.37 771.82 1123.11 771.82C1123.85 771.82 1124.49 772.091 1125.03 772.634C1125.6 773.152 1125.88 773.781 1125.88 774.521C1125.88 775.261 1125.55 776.161 1124.88 777.222L1122.66 780.885H1120.52L1121.89 777.037C1120.88 776.568 1120.37 775.754 1120.37 774.595ZM1157.43 777H1153.66V774.373C1152.03 776.322 1149.85 777.296 1147.11 777.296C1145.06 777.296 1143.36 776.716 1142 775.557C1140.67 774.398 1140.01 772.856 1140.01 770.932C1140.01 768.983 1140.72 767.528 1142.15 766.566C1143.58 765.604 1145.52 765.123 1147.96 765.123H1153.33V764.383C1153.33 761.768 1151.87 760.461 1148.96 760.461C1147.13 760.461 1145.23 761.127 1143.26 762.459L1141.41 759.869C1143.8 757.97 1146.52 757.02 1149.55 757.02C1151.87 757.02 1153.76 757.612 1155.21 758.796C1156.69 759.955 1157.43 761.793 1157.43 764.309V777ZM1153.29 769.674V768.009H1148.63C1145.64 768.009 1144.15 768.946 1144.15 770.821C1144.15 771.783 1144.52 772.523 1145.26 773.041C1146 773.534 1147.02 773.781 1148.33 773.781C1149.66 773.781 1150.82 773.411 1151.81 772.671C1152.79 771.931 1153.29 770.932 1153.29 769.674ZM1167.34 766.344V777H1163.2V757.316H1167.34V760.905C1168.01 759.696 1168.92 758.747 1170.08 758.056C1171.27 757.365 1172.54 757.02 1173.89 757.02C1176.11 757.02 1177.9 757.698 1179.26 759.055C1180.64 760.412 1181.33 762.373 1181.33 764.938V777H1177.19V766.196C1177.19 762.57 1175.68 760.757 1172.67 760.757C1171.24 760.757 1170 761.238 1168.94 762.2C1167.88 763.137 1167.34 764.519 1167.34 766.344ZM1195.15 777.296C1192.66 777.296 1190.49 776.359 1188.64 774.484C1186.79 772.609 1185.86 770.143 1185.86 767.084C1185.86 764.025 1186.81 761.583 1188.71 759.758C1190.61 757.933 1192.87 757.02 1195.48 757.02C1198.12 757.02 1200.24 758.13 1201.85 760.35V749.546H1205.99V777H1201.85V774.04C1200.32 776.211 1198.09 777.296 1195.15 777.296ZM1190.01 767.269C1190.01 769.144 1190.61 770.673 1191.82 771.857C1193.03 773.041 1194.45 773.633 1196.07 773.633C1197.7 773.633 1199.08 773.041 1200.22 771.857C1201.35 770.648 1201.92 769.107 1201.92 767.232C1201.92 765.357 1201.35 763.791 1200.22 762.533C1199.08 761.275 1197.69 760.646 1196.04 760.646C1194.39 760.646 1192.97 761.275 1191.78 762.533C1190.6 763.791 1190.01 765.37 1190.01 767.269ZM1230.87 777.296C1228.13 777.296 1225.77 776.371 1223.8 774.521C1221.83 772.646 1220.84 770.204 1220.84 767.195C1220.84 764.186 1221.86 761.744 1223.91 759.869C1225.98 757.97 1228.5 757.02 1231.46 757.02C1234.42 757.02 1236.92 758.044 1238.97 760.091L1236.53 763.088C1234.82 761.608 1233.11 760.868 1231.38 760.868C1229.66 760.868 1228.15 761.448 1226.87 762.607C1225.61 763.742 1224.98 765.222 1224.98 767.047C1224.98 768.848 1225.61 770.377 1226.87 771.635C1228.13 772.893 1229.67 773.522 1231.49 773.522C1233.34 773.522 1235.08 772.683 1236.71 771.006L1239.15 773.67C1236.76 776.087 1234 777.296 1230.87 777.296ZM1247.64 771.82C1248.83 773.004 1250.32 773.596 1252.12 773.596C1253.92 773.596 1255.4 773.004 1256.56 771.82C1257.74 770.611 1258.34 769.057 1258.34 767.158C1258.34 765.259 1257.74 763.717 1256.56 762.533C1255.4 761.324 1253.92 760.72 1252.12 760.72C1250.32 760.72 1248.83 761.324 1247.64 762.533C1246.48 763.717 1245.9 765.259 1245.9 767.158C1245.9 769.057 1246.48 770.611 1247.64 771.82ZM1259.52 774.373C1257.55 776.322 1255.08 777.296 1252.12 777.296C1249.16 777.296 1246.69 776.322 1244.72 774.373C1242.75 772.4 1241.76 769.995 1241.76 767.158C1241.76 764.321 1242.75 761.929 1244.72 759.98C1246.69 758.007 1249.16 757.02 1252.12 757.02C1255.08 757.02 1257.55 758.007 1259.52 759.98C1261.49 761.929 1262.48 764.321 1262.48 767.158C1262.48 769.995 1261.49 772.4 1259.52 774.373ZM1271.34 766.344V777H1267.19V757.316H1271.34V760.905C1271.93 759.696 1272.82 758.747 1274 758.056C1275.21 757.365 1276.5 757.02 1277.88 757.02C1280.99 757.02 1283.1 758.303 1284.21 760.868C1286.16 758.303 1288.59 757.02 1291.5 757.02C1293.72 757.02 1295.51 757.698 1296.87 759.055C1298.25 760.412 1298.94 762.373 1298.94 764.938V777H1294.79V766.196C1294.79 762.57 1293.29 760.757 1290.28 760.757C1288.87 760.757 1287.64 761.213 1286.58 762.126C1285.54 763.014 1285 764.321 1284.95 766.048V777H1280.81V766.196C1280.81 764.321 1280.47 762.952 1279.81 762.089C1279.14 761.201 1278.09 760.757 1276.66 760.757C1275.23 760.757 1273.99 761.238 1272.93 762.2C1271.87 763.137 1271.34 764.519 1271.34 766.344ZM1308.84 766.344V777H1304.7V757.316H1308.84V760.905C1309.43 759.696 1310.32 758.747 1311.5 758.056C1312.71 757.365 1314.01 757.02 1315.39 757.02C1318.5 757.02 1320.61 758.303 1321.72 760.868C1323.67 758.303 1326.1 757.02 1329.01 757.02C1331.23 757.02 1333.01 757.698 1334.37 759.055C1335.75 760.412 1336.44 762.373 1336.44 764.938V777H1332.3V766.196C1332.3 762.57 1330.79 760.757 1327.78 760.757C1326.38 760.757 1325.15 761.213 1324.08 762.126C1323.05 763.014 1322.51 764.321 1322.46 766.048V777H1318.31V766.196C1318.31 764.321 1317.98 762.952 1317.31 762.089C1316.65 761.201 1315.6 760.757 1314.17 760.757C1312.74 760.757 1311.49 761.238 1310.43 762.2C1309.37 763.137 1308.84 764.519 1308.84 766.344ZM1355.97 767.972V757.316H1360.11V777H1355.97V773.411C1355.3 774.62 1354.38 775.569 1353.19 776.26C1352.03 776.951 1350.77 777.296 1349.42 777.296C1347.2 777.296 1345.4 776.618 1344.02 775.261C1342.66 773.904 1341.98 771.943 1341.98 769.378V757.316H1346.12V768.12C1346.12 771.746 1347.63 773.559 1350.64 773.559C1352.07 773.559 1353.32 773.09 1354.38 772.153C1355.44 771.191 1355.97 769.797 1355.97 767.972ZM1370.27 766.344V777H1366.12V757.316H1370.27V760.905C1370.93 759.696 1371.85 758.747 1373 758.056C1374.19 757.365 1375.46 757.02 1376.82 757.02C1379.04 757.02 1380.82 757.698 1382.18 759.055C1383.56 760.412 1384.25 762.373 1384.25 764.938V777H1380.11V766.196C1380.11 762.57 1378.6 760.757 1375.59 760.757C1374.16 760.757 1372.92 761.238 1371.86 762.2C1370.8 763.137 1370.27 764.519 1370.27 766.344ZM1394.19 777H1390.04V757.316H1394.19V777ZM1390.3 753.394C1389.78 752.876 1389.52 752.259 1389.52 751.544C1389.52 750.829 1389.78 750.212 1390.3 749.694C1390.82 749.176 1391.44 748.917 1392.15 748.917C1392.87 748.917 1393.48 749.176 1394 749.694C1394.52 750.212 1394.78 750.829 1394.78 751.544C1394.78 752.259 1394.52 752.876 1394 753.394C1393.48 753.912 1392.87 754.171 1392.15 754.171C1391.44 754.171 1390.82 753.912 1390.3 753.394ZM1405.3 760.646V770.636C1405.3 771.573 1405.55 772.326 1406.04 772.893C1406.54 773.436 1407.23 773.707 1408.11 773.707C1409 773.707 1409.85 773.275 1410.67 772.412L1412.37 775.335C1410.91 776.642 1409.3 777.296 1407.52 777.296C1405.77 777.296 1404.27 776.692 1403.01 775.483C1401.77 774.25 1401.16 772.597 1401.16 770.525V760.646H1398.68V757.316H1401.16V751.137H1405.3V757.316H1410.48V760.646H1405.3ZM1418.14 784.844C1416.34 784.844 1414.71 784.19 1413.26 782.883L1415.14 779.516C1416.01 780.33 1416.89 780.737 1417.81 780.737C1418.74 780.737 1419.5 780.404 1420.06 779.738C1420.66 779.072 1420.95 778.344 1420.95 777.555C1420.95 777.21 1418.3 770.463 1413 757.316H1417.44L1423.32 771.82L1429.2 757.316H1433.64L1424.1 780.7C1423.53 781.983 1422.72 782.994 1421.65 783.734C1420.59 784.474 1419.42 784.844 1418.14 784.844ZM1435.79 776.482C1435.27 775.939 1435.01 775.286 1435.01 774.521C1435.01 773.756 1435.27 773.115 1435.79 772.597C1436.33 772.054 1436.99 771.783 1437.75 771.783C1438.52 771.783 1439.17 772.054 1439.71 772.597C1440.26 773.115 1440.53 773.756 1440.53 774.521C1440.53 775.286 1440.26 775.939 1439.71 776.482C1439.17 777.025 1438.52 777.296 1437.75 777.296C1436.99 777.296 1436.33 777.025 1435.79 776.482Z" fill="black"/>
<path d="M1961.89 716.137V720.244H1948.09V727.089H1960.48V730.974H1948.09V737.893H1962.33V742H1943.72V716.137H1961.89ZM1970.48 722.316L1974.7 728.791L1979.07 722.316H1983.99L1977.11 731.936L1984.28 742H1979.18L1974.48 735.451L1969.89 742H1965.04L1972.04 731.973L1965.41 722.316H1970.48ZM1998.51 722.02C2001.15 722.02 2003.41 722.933 2005.29 724.758C2007.16 726.583 2008.1 729.013 2008.1 732.047C2008.1 735.081 2007.16 737.548 2005.29 739.447C2003.44 741.346 2001.27 742.296 1998.77 742.296C1996.31 742.296 1994.09 741.211 1992.11 739.04V749.178H1987.97V722.316H1992.11V725.757C1993.74 723.266 1995.88 722.02 1998.51 722.02ZM1992.04 732.195C1992.04 734.07 1992.61 735.611 1993.74 736.82C1994.88 738.004 1996.26 738.596 1997.89 738.596C1999.51 738.596 2000.93 738.004 2002.14 736.82C2003.35 735.636 2003.95 734.107 2003.95 732.232C2003.95 730.333 2003.36 728.766 2002.18 727.533C2000.99 726.275 1999.58 725.646 1997.92 725.646C1996.27 725.646 1994.88 726.275 1993.74 727.533C1992.61 728.766 1992.04 730.32 1992.04 732.195ZM2031.14 733.971H2015.72C2015.81 735.402 2016.47 736.561 2017.68 737.449C2018.88 738.312 2020.27 738.744 2021.82 738.744C2024.29 738.744 2026.16 737.967 2027.44 736.413L2029.81 739.003C2027.69 741.198 2024.93 742.296 2021.52 742.296C2018.76 742.296 2016.41 741.383 2014.46 739.558C2012.53 737.708 2011.57 735.241 2011.57 732.158C2011.57 729.05 2012.56 726.583 2014.53 724.758C2016.5 722.933 2018.82 722.02 2021.49 722.02C2024.18 722.02 2026.46 722.834 2028.33 724.462C2030.21 726.065 2031.14 728.285 2031.14 731.122V733.971ZM2015.72 730.715H2027C2027 729.062 2026.48 727.792 2025.45 726.904C2024.41 726.016 2023.13 725.572 2021.6 725.572C2020.09 725.572 2018.74 726.041 2017.53 726.978C2016.32 727.891 2015.72 729.136 2015.72 730.715ZM2046.02 726.201C2043.98 726.201 2042.44 726.867 2041.4 728.199C2040.36 729.531 2039.85 731.319 2039.85 733.564V742H2035.7V722.316H2039.85V726.275C2040.51 725.042 2041.41 724.03 2042.55 723.241C2043.71 722.452 2044.93 722.045 2046.21 722.02L2046.25 726.201C2046.17 726.201 2046.1 726.201 2046.02 726.201ZM2055.51 725.646V735.636C2055.51 736.573 2055.76 737.326 2056.25 737.893C2056.75 738.436 2057.44 738.707 2058.33 738.707C2059.21 738.707 2060.06 738.275 2060.88 737.412L2062.58 740.335C2061.13 741.642 2059.51 742.296 2057.73 742.296C2055.98 742.296 2054.48 741.692 2053.22 740.483C2051.99 739.25 2051.37 737.597 2051.37 735.525V725.646H2048.89V722.316H2051.37V716.137H2055.51V722.316H2060.69V725.646H2055.51ZM2070.02 742H2065.87V722.316H2070.02V742ZM2066.13 718.394C2065.61 717.876 2065.35 717.259 2065.35 716.544C2065.35 715.829 2065.61 715.212 2066.13 714.694C2066.65 714.176 2067.27 713.917 2067.98 713.917C2068.7 713.917 2069.31 714.176 2069.83 714.694C2070.35 715.212 2070.61 715.829 2070.61 716.544C2070.61 717.259 2070.35 717.876 2069.83 718.394C2069.31 718.912 2068.7 719.171 2067.98 719.171C2067.27 719.171 2066.65 718.912 2066.13 718.394ZM2090.05 736.117C2090.05 737.992 2089.37 739.496 2088.01 740.631C2086.66 741.741 2084.92 742.296 2082.8 742.296C2081.37 742.296 2079.87 742.037 2078.32 741.519C2076.79 741.001 2075.43 740.273 2074.25 739.336L2076.25 736.117C2078.54 737.844 2080.76 738.707 2082.91 738.707C2083.84 738.707 2084.58 738.497 2085.13 738.078C2085.67 737.634 2085.94 737.079 2085.94 736.413C2085.94 735.426 2084.63 734.538 2082.02 733.749C2081.82 733.675 2081.67 733.626 2081.58 733.601C2077.48 732.491 2075.43 730.641 2075.43 728.051C2075.43 726.226 2076.14 724.77 2077.54 723.685C2078.97 722.575 2080.82 722.02 2083.09 722.02C2085.36 722.02 2087.51 722.686 2089.53 724.018L2087.98 727.089C2086.37 726.028 2084.63 725.498 2082.76 725.498C2081.77 725.498 2080.97 725.683 2080.35 726.053C2079.74 726.398 2079.43 726.929 2079.43 727.644C2079.43 728.285 2079.75 728.754 2080.39 729.05C2080.84 729.272 2081.45 729.482 2082.24 729.679C2083.06 729.876 2083.77 730.074 2084.39 730.271C2085 730.468 2085.6 730.69 2086.16 730.937C2086.76 731.184 2087.38 731.529 2088.05 731.973C2089.38 732.861 2090.05 734.242 2090.05 736.117ZM2113.06 733.971H2097.63C2097.73 735.402 2098.38 736.561 2099.59 737.449C2100.8 738.312 2102.18 738.744 2103.73 738.744C2106.2 738.744 2108.07 737.967 2109.36 736.413L2111.73 739.003C2109.6 741.198 2106.84 742.296 2103.44 742.296C2100.67 742.296 2098.32 741.383 2096.37 739.558C2094.45 737.708 2093.48 735.241 2093.48 732.158C2093.48 729.05 2094.47 726.583 2096.44 724.758C2098.42 722.933 2100.74 722.02 2103.4 722.02C2106.09 722.02 2108.37 722.834 2110.25 724.462C2112.12 726.065 2113.06 728.285 2113.06 731.122V733.971ZM2097.63 730.715H2108.91C2108.91 729.062 2108.4 727.792 2107.36 726.904C2106.32 726.016 2105.04 725.572 2103.51 725.572C2102.01 725.572 2100.65 726.041 2099.44 726.978C2098.23 727.891 2097.63 729.136 2097.63 730.715ZM2117.06 739.595C2117.06 738.806 2117.33 738.152 2117.87 737.634C2118.42 737.091 2119.06 736.82 2119.8 736.82C2120.54 736.82 2121.18 737.091 2121.72 737.634C2122.29 738.152 2122.57 738.781 2122.57 739.521C2122.57 740.261 2122.24 741.161 2121.57 742.222L2119.35 745.885H2117.21L2118.58 742.037C2117.57 741.568 2117.06 740.754 2117.06 739.595ZM2152.2 736.117C2152.2 737.992 2151.52 739.496 2150.16 740.631C2148.81 741.741 2147.07 742.296 2144.95 742.296C2143.51 742.296 2142.02 742.037 2140.47 741.519C2138.94 741.001 2137.58 740.273 2136.4 739.336L2138.4 736.117C2140.69 737.844 2142.91 738.707 2145.06 738.707C2145.99 738.707 2146.73 738.497 2147.28 738.078C2147.82 737.634 2148.09 737.079 2148.09 736.413C2148.09 735.426 2146.78 734.538 2144.17 733.749C2143.97 733.675 2143.82 733.626 2143.72 733.601C2139.63 732.491 2137.58 730.641 2137.58 728.051C2137.58 726.226 2138.29 724.77 2139.69 723.685C2141.12 722.575 2142.97 722.02 2145.24 722.02C2147.51 722.02 2149.66 722.686 2151.68 724.018L2150.13 727.089C2148.52 726.028 2146.78 725.498 2144.91 725.498C2143.92 725.498 2143.12 725.683 2142.5 726.053C2141.89 726.398 2141.58 726.929 2141.58 727.644C2141.58 728.285 2141.9 728.754 2142.54 729.05C2142.98 729.272 2143.6 729.482 2144.39 729.679C2145.2 729.876 2145.92 730.074 2146.54 730.271C2147.15 730.468 2147.74 730.69 2148.31 730.937C2148.9 731.184 2149.53 731.529 2150.2 731.973C2151.53 732.861 2152.2 734.242 2152.2 736.117ZM2162 725.646V735.636C2162 736.573 2162.24 737.326 2162.74 737.893C2163.23 738.436 2163.92 738.707 2164.81 738.707C2165.7 738.707 2166.55 738.275 2167.36 737.412L2169.06 740.335C2167.61 741.642 2165.99 742.296 2164.22 742.296C2162.47 742.296 2160.96 741.692 2159.7 740.483C2158.47 739.25 2157.85 737.597 2157.85 735.525V725.646H2155.37V722.316H2157.85V716.137H2162V722.316H2167.18V725.646H2162ZM2188.3 742H2184.53V739.373C2182.9 741.322 2180.72 742.296 2177.98 742.296C2175.93 742.296 2174.23 741.716 2172.87 740.557C2171.54 739.398 2170.88 737.856 2170.88 735.932C2170.88 733.983 2171.59 732.528 2173.02 731.566C2174.45 730.604 2176.39 730.123 2178.83 730.123H2184.2V729.383C2184.2 726.768 2182.74 725.461 2179.83 725.461C2178 725.461 2176.1 726.127 2174.13 727.459L2172.28 724.869C2174.67 722.97 2177.39 722.02 2180.42 722.02C2182.74 722.02 2184.63 722.612 2186.08 723.796C2187.56 724.955 2188.3 726.793 2188.3 729.309V742ZM2184.16 734.674V733.009H2179.5C2176.51 733.009 2175.02 733.946 2175.02 735.821C2175.02 736.783 2175.39 737.523 2176.13 738.041C2176.87 738.534 2177.89 738.781 2179.2 738.781C2180.53 738.781 2181.69 738.411 2182.68 737.671C2183.67 736.931 2184.16 735.932 2184.16 734.674ZM2198.96 725.646V735.636C2198.96 736.573 2199.21 737.326 2199.7 737.893C2200.19 738.436 2200.88 738.707 2201.77 738.707C2202.66 738.707 2203.51 738.275 2204.33 737.412L2206.03 740.335C2204.57 741.642 2202.96 742.296 2201.18 742.296C2199.43 742.296 2197.92 741.692 2196.67 740.483C2195.43 739.25 2194.82 737.597 2194.82 735.525V725.646H2192.34V722.316H2194.82V716.137H2198.96V722.316H2204.14V725.646H2198.96ZM2223.08 732.972V722.316H2227.23V742H2223.08V738.411C2222.42 739.62 2221.49 740.569 2220.31 741.26C2219.15 741.951 2217.89 742.296 2216.53 742.296C2214.31 742.296 2212.51 741.618 2211.13 740.261C2209.78 738.904 2209.1 736.943 2209.1 734.378V722.316H2213.24V733.12C2213.24 736.746 2214.75 738.559 2217.76 738.559C2219.19 738.559 2220.43 738.09 2221.49 737.153C2222.55 736.191 2223.08 734.797 2223.08 732.972ZM2247.26 736.117C2247.26 737.992 2246.58 739.496 2245.23 740.631C2243.87 741.741 2242.13 742.296 2240.01 742.296C2238.58 742.296 2237.09 742.037 2235.53 741.519C2234 741.001 2232.65 740.273 2231.46 739.336L2233.46 736.117C2235.76 737.844 2237.98 738.707 2240.12 738.707C2241.06 738.707 2241.8 738.497 2242.34 738.078C2242.88 737.634 2243.16 737.079 2243.16 736.413C2243.16 735.426 2241.85 734.538 2239.23 733.749C2239.04 733.675 2238.89 733.626 2238.79 733.601C2234.69 732.491 2232.65 730.641 2232.65 728.051C2232.65 726.226 2233.35 724.77 2234.76 723.685C2236.19 722.575 2238.04 722.02 2240.31 722.02C2242.58 722.02 2244.72 722.686 2246.74 724.018L2245.19 727.089C2243.59 726.028 2241.85 725.498 2239.97 725.498C2238.99 725.498 2238.19 725.683 2237.57 726.053C2236.95 726.398 2236.64 726.929 2236.64 727.644C2236.64 728.285 2236.96 728.754 2237.61 729.05C2238.05 729.272 2238.67 729.482 2239.46 729.679C2240.27 729.876 2240.98 730.074 2241.6 730.271C2242.22 730.468 2242.81 730.69 2243.38 730.937C2243.97 731.184 2244.6 731.529 2245.26 731.973C2246.6 732.861 2247.26 734.242 2247.26 736.117ZM2251.4 739.595C2251.4 738.806 2251.67 738.152 2252.22 737.634C2252.76 737.091 2253.4 736.82 2254.14 736.82C2254.88 736.82 2255.52 737.091 2256.06 737.634C2256.63 738.152 2256.91 738.781 2256.91 739.521C2256.91 740.261 2256.58 741.161 2255.92 742.222L2253.7 745.885H2251.55L2252.92 742.037C2251.91 741.568 2251.4 740.754 2251.4 739.595ZM2280.06 742.296C2277.65 742.296 2275.59 741.63 2273.88 740.298C2272.18 738.941 2271.33 737.091 2271.33 734.748C2271.33 731.961 2273.35 729.482 2277.4 727.311C2276.39 726.152 2275.67 725.202 2275.25 724.462C2274.86 723.722 2274.66 722.785 2274.66 721.65C2274.66 719.677 2275.39 718.16 2276.84 717.099C2278.3 716.038 2280.01 715.508 2281.99 715.508C2283.96 715.508 2285.64 716.014 2287.02 717.025C2288.4 718.036 2289.09 719.455 2289.09 721.28C2289.09 723.722 2287.12 726.028 2283.17 728.199C2285.15 730.616 2286.75 732.466 2287.98 733.749C2288.75 732.614 2289.34 731.295 2289.76 729.79L2292.79 731.936C2292.15 733.638 2291.42 735.13 2290.61 736.413C2291.6 737.424 2292.85 738.645 2294.38 740.076L2291.61 742.666L2288.2 739.299C2286.03 741.297 2283.32 742.296 2280.06 742.296ZM2275.44 734.933C2275.44 736.043 2275.91 736.956 2276.84 737.671C2277.78 738.362 2279.03 738.707 2280.58 738.707C2282.14 738.707 2283.79 737.992 2285.54 736.561C2283.05 733.946 2281.08 731.751 2279.62 729.975C2276.83 731.48 2275.44 733.132 2275.44 734.933ZM2281.95 718.801C2281.14 718.801 2280.4 719.06 2279.73 719.578C2279.09 720.096 2278.77 720.7 2278.77 721.391C2278.77 722.082 2278.93 722.711 2279.25 723.278C2279.6 723.821 2280.17 724.585 2280.99 725.572C2283.78 724.191 2285.17 722.908 2285.17 721.724C2285.17 720.737 2284.84 720.01 2284.17 719.541C2283.53 719.048 2282.79 718.801 2281.95 718.801ZM2312.5 742H2308.36V722.316H2312.5V742ZM2308.62 718.394C2308.1 717.876 2307.84 717.259 2307.84 716.544C2307.84 715.829 2308.1 715.212 2308.62 714.694C2309.14 714.176 2309.75 713.917 2310.47 713.917C2311.18 713.917 2311.8 714.176 2312.32 714.694C2312.84 715.212 2313.1 715.829 2313.1 716.544C2313.1 717.259 2312.84 717.876 2312.32 718.394C2311.8 718.912 2311.18 719.171 2310.47 719.171C2309.75 719.171 2309.14 718.912 2308.62 718.394ZM2326.54 742.296C2324.05 742.296 2321.88 741.359 2320.03 739.484C2318.18 737.609 2317.25 735.143 2317.25 732.084C2317.25 729.025 2318.2 726.583 2320.1 724.758C2322 722.933 2324.26 722.02 2326.87 722.02C2329.51 722.02 2331.64 723.13 2333.24 725.35V714.546H2337.38V742H2333.24V739.04C2331.71 741.211 2329.48 742.296 2326.54 742.296ZM2321.4 732.269C2321.4 734.144 2322 735.673 2323.21 736.857C2324.42 738.041 2325.84 738.633 2327.47 738.633C2329.09 738.633 2330.48 738.041 2331.61 736.857C2332.75 735.648 2333.31 734.107 2333.31 732.232C2333.31 730.357 2332.75 728.791 2331.61 727.533C2330.48 726.275 2329.08 725.646 2327.43 725.646C2325.78 725.646 2324.36 726.275 2323.17 727.533C2321.99 728.791 2321.4 730.37 2321.4 732.269ZM2361.69 733.971H2346.26C2346.36 735.402 2347.01 736.561 2348.22 737.449C2349.43 738.312 2350.81 738.744 2352.36 738.744C2354.83 738.744 2356.7 737.967 2357.99 736.413L2360.36 739.003C2358.23 741.198 2355.47 742.296 2352.07 742.296C2349.3 742.296 2346.95 741.383 2345 739.558C2343.08 737.708 2342.11 735.241 2342.11 732.158C2342.11 729.05 2343.1 726.583 2345.07 724.758C2347.05 722.933 2349.37 722.02 2352.03 722.02C2354.72 722.02 2357 722.834 2358.88 724.462C2360.75 726.065 2361.69 728.285 2361.69 731.122V733.971ZM2346.26 730.715H2357.54C2357.54 729.062 2357.03 727.792 2355.99 726.904C2354.95 726.016 2353.67 725.572 2352.14 725.572C2350.64 725.572 2349.28 726.041 2348.07 726.978C2346.86 727.891 2346.26 729.136 2346.26 730.715ZM2370.39 731.344V742H2366.24V722.316H2370.39V725.905C2371.05 724.696 2371.97 723.747 2373.13 723.056C2374.31 722.365 2375.58 722.02 2376.94 722.02C2379.16 722.02 2380.95 722.698 2382.3 724.055C2383.68 725.412 2384.37 727.373 2384.37 729.938V742H2380.23V731.196C2380.23 727.57 2378.73 725.757 2375.72 725.757C2374.29 725.757 2373.04 726.238 2371.98 727.2C2370.92 728.137 2370.39 729.519 2370.39 731.344ZM2395.02 725.646V735.636C2395.02 736.573 2395.26 737.326 2395.76 737.893C2396.25 738.436 2396.94 738.707 2397.83 738.707C2398.72 738.707 2399.57 738.275 2400.38 737.412L2402.08 740.335C2400.63 741.642 2399.01 742.296 2397.24 742.296C2395.49 742.296 2393.98 741.692 2392.72 740.483C2391.49 739.25 2390.87 737.597 2390.87 735.525V725.646H2388.39V722.316H2390.87V716.137H2395.02V722.316H2400.2V725.646H2395.02ZM2409.52 742H2405.38V722.316H2409.52V742ZM2405.64 718.394C2405.12 717.876 2404.86 717.259 2404.86 716.544C2404.86 715.829 2405.12 715.212 2405.64 714.694C2406.15 714.176 2406.77 713.917 2407.49 713.917C2408.2 713.917 2408.82 714.176 2409.34 714.694C2409.85 715.212 2410.11 715.829 2410.11 716.544C2410.11 717.259 2409.85 717.876 2409.34 718.394C2408.82 718.912 2408.2 719.171 2407.49 719.171C2406.77 719.171 2406.15 718.912 2405.64 718.394ZM2420.64 725.646V735.636C2420.64 736.573 2420.88 737.326 2421.38 737.893C2421.87 738.436 2422.56 738.707 2423.45 738.707C2424.34 738.707 2425.19 738.275 2426 737.412L2427.7 740.335C2426.25 741.642 2424.63 742.296 2422.86 742.296C2421.1 742.296 2419.6 741.692 2418.34 740.483C2417.11 739.25 2416.49 737.597 2416.49 735.525V725.646H2414.01V722.316H2416.49V716.137H2420.64V722.316H2425.82V725.646H2420.64ZM2433.47 749.844C2431.67 749.844 2430.04 749.19 2428.59 747.883L2430.48 744.516C2431.34 745.33 2432.23 745.737 2433.14 745.737C2434.08 745.737 2434.83 745.404 2435.4 744.738C2435.99 744.072 2436.29 743.344 2436.29 742.555C2436.29 742.21 2433.63 735.463 2428.33 722.316H2432.77L2438.65 736.82L2444.54 722.316H2448.98L2439.43 745.7C2438.86 746.983 2438.05 747.994 2436.99 748.734C2435.93 749.474 2434.76 749.844 2433.47 749.844Z" fill="black"/>
</svg>
